<?xml version="1.0" encoding="UTF-8" standalone="no"?>
<!DOCTYPE svg PUBLIC "-//W3C//DTD SVG 1.1//EN"
 "http://www.w3.org/Graphics/SVG/1.1/DTD/svg11.dtd">
<!-- Generated by graphviz version 2.43.0 (0)
 -->
<!-- Title: G Pages: 1 -->
<svg width="373pt" height="300pt"
 viewBox="0.00 0.00 373.37 300.25" xmlns="http://www.w3.org/2000/svg" xmlns:xlink="http://www.w3.org/1999/xlink">
<g id="graph0" class="graph" transform="scale(1 1) rotate(0) translate(4 296.25)">
<title>G</title>
<polygon fill="white" stroke="transparent" points="-4,4 -4,-296.25 369.37,-296.25 369.37,4 -4,4"/>
<!-- board.cache_hierarchy.ruby_system.network.routers0 -->
<g id="node1" class="node">
<title>board.cache_hierarchy.ruby_system.network.routers0</title>
<path fill="#cce6fc" stroke="#000000" d="M162.32,-83.58C162.32,-83.58 192.32,-83.58 192.32,-83.58 198.32,-83.58 204.32,-89.58 204.32,-95.58 204.32,-95.58 204.32,-107.58 204.32,-107.58 204.32,-113.58 198.32,-119.58 192.32,-119.58 192.32,-119.58 162.32,-119.58 162.32,-119.58 156.32,-119.58 150.32,-113.58 150.32,-107.58 150.32,-107.58 150.32,-95.58 150.32,-95.58 150.32,-89.58 156.32,-83.58 162.32,-83.58"/>
<text text-anchor="middle" x="177.32" y="-97.88" font-family="Arial" font-size="14.00" fill="#000000">R 0</text>
</g>
<!-- board.cache_hierarchy.ruby_system.network.routers1 -->
<g id="node2" class="node">
<title>board.cache_hierarchy.ruby_system.network.routers1</title>
<path fill="#cce6fc" stroke="#000000" d="M131.06,-98.59C131.06,-98.59 161.06,-98.59 161.06,-98.59 167.06,-98.59 173.06,-104.59 173.06,-110.59 173.06,-110.59 173.06,-122.59 173.06,-122.59 173.06,-128.59 167.06,-134.59 161.06,-134.59 161.06,-134.59 131.06,-134.59 131.06,-134.59 125.06,-134.59 119.06,-128.59 119.06,-122.59 119.06,-122.59 119.06,-110.59 119.06,-110.59 119.06,-104.59 125.06,-98.59 131.06,-98.59"/>
<text text-anchor="middle" x="146.06" y="-112.89" font-family="Arial" font-size="14.00" fill="#000000">R 1</text>
</g>
<!-- board.cache_hierarchy.ruby_system.network.routers0&#45;&#45;board.cache_hierarchy.ruby_system.network.routers1 -->
<g id="edge1" class="edge">
<title>board.cache_hierarchy.ruby_system.network.routers0&#45;&#45;board.cache_hierarchy.ruby_system.network.routers1</title>
<path fill="none" stroke="#042d50" d="M150.14,-114.63C150.07,-114.67 149.99,-114.7 149.91,-114.74"/>
<polygon fill="#042d50" stroke="#042d50" points="157.19,-107.36 149.69,-114.85 160.22,-113.67 157.19,-107.36"/>
</g>
<!-- board.cache_hierarchy.ruby_system.network.routers2 -->
<g id="node3" class="node">
<title>board.cache_hierarchy.ruby_system.network.routers2</title>
<path fill="#cce6fc" stroke="#000000" d="M118.61,-126.19C118.61,-126.19 148.61,-126.19 148.61,-126.19 154.61,-126.19 160.61,-132.19 160.61,-138.19 160.61,-138.19 160.61,-150.19 160.61,-150.19 160.61,-156.19 154.61,-162.19 148.61,-162.19 148.61,-162.19 118.61,-162.19 118.61,-162.19 112.61,-162.19 106.61,-156.19 106.61,-150.19 106.61,-150.19 106.61,-138.19 106.61,-138.19 106.61,-132.19 112.61,-126.19 118.61,-126.19"/>
<text text-anchor="middle" x="133.61" y="-140.49" font-family="Arial" font-size="14.00" fill="#000000">R 2</text>
</g>
<!-- board.cache_hierarchy.ruby_system.network.routers0&#45;&#45;board.cache_hierarchy.ruby_system.network.routers2 -->
<g id="edge2" class="edge">
<title>board.cache_hierarchy.ruby_system.network.routers0&#45;&#45;board.cache_hierarchy.ruby_system.network.routers2</title>
<path fill="none" stroke="#042d50" d="M150.24,-118.55C150.09,-118.7 149.93,-118.86 149.77,-119.01"/>
<polygon fill="#042d50" stroke="#042d50" points="147.45,-116.38 143.13,-126.06 152.54,-121.19 147.45,-116.38"/>
</g>
<!-- board.cache_hierarchy.ruby_system.network.routers3 -->
<g id="node4" class="node">
<title>board.cache_hierarchy.ruby_system.network.routers3</title>
<path fill="#cce6fc" stroke="#000000" d="M186,-160.73C186,-160.73 216,-160.73 216,-160.73 222,-160.73 228,-166.73 228,-172.73 228,-172.73 228,-184.73 228,-184.73 228,-190.73 222,-196.73 216,-196.73 216,-196.73 186,-196.73 186,-196.73 180,-196.73 174,-190.73 174,-184.73 174,-184.73 174,-172.73 174,-172.73 174,-166.73 180,-160.73 186,-160.73"/>
<text text-anchor="middle" x="201" y="-175.03" font-family="Arial" font-size="14.00" fill="#000000">R 3</text>
</g>
<!-- board.cache_hierarchy.ruby_system.network.routers0&#45;&#45;board.cache_hierarchy.ruby_system.network.routers3 -->
<g id="edge3" class="edge">
<title>board.cache_hierarchy.ruby_system.network.routers0&#45;&#45;board.cache_hierarchy.ruby_system.network.routers3</title>
<path fill="none" stroke="#042d50" d="M176.95,-119.6C178.75,-128.95 181.98,-140.56 185.6,-151.02"/>
<polygon fill="#042d50" stroke="#042d50" points="182.39,-152.43 189.16,-160.59 188.96,-149.99 182.39,-152.43"/>
</g>
<!-- board.cache_hierarchy.ruby_system.network.routers4 -->
<g id="node5" class="node">
<title>board.cache_hierarchy.ruby_system.network.routers4</title>
<path fill="#cce6fc" stroke="#000000" d="M201.93,-147.79C201.93,-147.79 231.93,-147.79 231.93,-147.79 237.93,-147.79 243.93,-153.79 243.93,-159.79 243.93,-159.79 243.93,-171.79 243.93,-171.79 243.93,-177.79 237.93,-183.79 231.93,-183.79 231.93,-183.79 201.93,-183.79 201.93,-183.79 195.93,-183.79 189.93,-177.79 189.93,-171.79 189.93,-171.79 189.93,-159.79 189.93,-159.79 189.93,-153.79 195.93,-147.79 201.93,-147.79"/>
<text text-anchor="middle" x="216.93" y="-162.09" font-family="Arial" font-size="14.00" fill="#000000">R 4</text>
</g>
<!-- board.cache_hierarchy.ruby_system.network.routers0&#45;&#45;board.cache_hierarchy.ruby_system.network.routers4 -->
<g id="edge4" class="edge">
<title>board.cache_hierarchy.ruby_system.network.routers0&#45;&#45;board.cache_hierarchy.ruby_system.network.routers4</title>
<path fill="none" stroke="#042d50" d="M181.74,-119.87C184.63,-125.83 188.43,-132.55 192.48,-138.99"/>
<polygon fill="#042d50" stroke="#042d50" points="189.66,-141.08 198.1,-147.5 195.5,-137.22 189.66,-141.08"/>
</g>
<!-- board.cache_hierarchy.ruby_system.network.routers5 -->
<g id="node6" class="node">
<title>board.cache_hierarchy.ruby_system.network.routers5</title>
<path fill="#cce6fc" stroke="#000000" d="M154.6,-172.49C154.6,-172.49 184.6,-172.49 184.6,-172.49 190.6,-172.49 196.6,-178.49 196.6,-184.49 196.6,-184.49 196.6,-196.49 196.6,-196.49 196.6,-202.49 190.6,-208.49 184.6,-208.49 184.6,-208.49 154.6,-208.49 154.6,-208.49 148.6,-208.49 142.6,-202.49 142.6,-196.49 142.6,-196.49 142.6,-184.49 142.6,-184.49 142.6,-178.49 148.6,-172.49 154.6,-172.49"/>
<text text-anchor="middle" x="169.6" y="-186.79" font-family="Arial" font-size="14.00" fill="#000000">R 5</text>
</g>
<!-- board.cache_hierarchy.ruby_system.network.routers0&#45;&#45;board.cache_hierarchy.ruby_system.network.routers5 -->
<g id="edge5" class="edge">
<title>board.cache_hierarchy.ruby_system.network.routers0&#45;&#45;board.cache_hierarchy.ruby_system.network.routers5</title>
<path fill="none" stroke="#042d50" d="M170.07,-119.95C167.78,-132.19 166.14,-148.52 165.72,-162.38"/>
<polygon fill="#042d50" stroke="#042d50" points="162.22,-162.37 165.64,-172.4 169.22,-162.42 162.22,-162.37"/>
</g>
<!-- board.cache_hierarchy.ruby_system.network.routers6 -->
<g id="node7" class="node">
<title>board.cache_hierarchy.ruby_system.network.routers6</title>
<path fill="#cce6fc" stroke="#000000" d="M181.07,-92.45C181.07,-92.45 211.07,-92.45 211.07,-92.45 217.07,-92.45 223.07,-98.45 223.07,-104.45 223.07,-104.45 223.07,-116.45 223.07,-116.45 223.07,-122.45 217.07,-128.45 211.07,-128.45 211.07,-128.45 181.07,-128.45 181.07,-128.45 175.07,-128.45 169.07,-122.45 169.07,-116.45 169.07,-116.45 169.07,-104.45 169.07,-104.45 169.07,-98.45 175.07,-92.45 181.07,-92.45"/>
<text text-anchor="middle" x="196.07" y="-106.75" font-family="Arial" font-size="14.00" fill="#000000">R 6</text>
</g>
<!-- board.cache_hierarchy.ruby_system.network.routers0&#45;&#45;board.cache_hierarchy.ruby_system.network.routers6 -->
<g id="edge6" class="edge">
<title>board.cache_hierarchy.ruby_system.network.routers0&#45;&#45;board.cache_hierarchy.ruby_system.network.routers6</title>
<path fill="none" stroke="#042d50" d="M195.88,-110.82C195.9,-110.79 195.91,-110.76 195.93,-110.73"/>
<polygon fill="#042d50" stroke="#042d50" points="194.38,-121.12 195.98,-110.64 188.2,-117.84 194.38,-121.12"/>
</g>
<!-- board.cache_hierarchy.ruby_system.network.routers7 -->
<g id="node8" class="node">
<title>board.cache_hierarchy.ruby_system.network.routers7</title>
<path fill="#cce6fc" stroke="#000000" d="M207.94,-112.81C207.94,-112.81 237.94,-112.81 237.94,-112.81 243.94,-112.81 249.94,-118.81 249.94,-124.81 249.94,-124.81 249.94,-136.81 249.94,-136.81 249.94,-142.81 243.94,-148.81 237.94,-148.81 237.94,-148.81 207.94,-148.81 207.94,-148.81 201.94,-148.81 195.94,-142.81 195.94,-136.81 195.94,-136.81 195.94,-124.81 195.94,-124.81 195.94,-118.81 201.94,-112.81 207.94,-112.81"/>
<text text-anchor="middle" x="222.94" y="-127.11" font-family="Arial" font-size="14.00" fill="#000000">R 7</text>
</g>
<!-- board.cache_hierarchy.ruby_system.network.routers0&#45;&#45;board.cache_hierarchy.ruby_system.network.routers7 -->
<g id="edge7" class="edge">
<title>board.cache_hierarchy.ruby_system.network.routers0&#45;&#45;board.cache_hierarchy.ruby_system.network.routers7</title>
<path fill="none" stroke="#042d50" d="M193.07,-119.6C193.17,-119.68 193.28,-119.75 193.39,-119.82"/>
<polygon fill="#042d50" stroke="#042d50" points="185.41,-118.7 195.67,-121.35 189.3,-112.88 185.41,-118.7"/>
</g>
<!-- board.cache_hierarchy.ruby_system.network.routers8 -->
<g id="node9" class="node">
<title>board.cache_hierarchy.ruby_system.network.routers8</title>
<path fill="#cce6fc" stroke="#000000" d="M129.25,-154.94C129.25,-154.94 159.25,-154.94 159.25,-154.94 165.25,-154.94 171.25,-160.94 171.25,-166.94 171.25,-166.94 171.25,-178.94 171.25,-178.94 171.25,-184.94 165.25,-190.94 159.25,-190.94 159.25,-190.94 129.25,-190.94 129.25,-190.94 123.25,-190.94 117.25,-184.94 117.25,-178.94 117.25,-178.94 117.25,-166.94 117.25,-166.94 117.25,-160.94 123.25,-154.94 129.25,-154.94"/>
<text text-anchor="middle" x="144.25" y="-169.24" font-family="Arial" font-size="14.00" fill="#000000">R 8</text>
</g>
<!-- board.cache_hierarchy.ruby_system.network.routers0&#45;&#45;board.cache_hierarchy.ruby_system.network.routers8 -->
<g id="edge8" class="edge">
<title>board.cache_hierarchy.ruby_system.network.routers0&#45;&#45;board.cache_hierarchy.ruby_system.network.routers8</title>
<path fill="none" stroke="#042d50" d="M162.14,-119.62C157.9,-127.28 153.57,-136.38 150.1,-144.88"/>
<polygon fill="#042d50" stroke="#042d50" points="146.74,-143.87 146.48,-154.46 153.29,-146.34 146.74,-143.87"/>
</g>
<!-- board.cache_hierarchy.ruby_system.network.routers1&#45;&#45;board.cache_hierarchy.ruby_system.network.routers2 -->
<g id="edge9" class="edge">
<title>board.cache_hierarchy.ruby_system.network.routers1&#45;&#45;board.cache_hierarchy.ruby_system.network.routers2</title>
<path fill="none" stroke="#042d50" d="M137.82,-134.84C137.79,-134.92 137.75,-135 137.72,-135.08"/>
<polygon fill="#042d50" stroke="#042d50" points="138.53,-124.77 137.61,-135.32 144.91,-127.65 138.53,-124.77"/>
</g>
<!-- board.cache_hierarchy.ruby_system.network.routers1&#45;&#45;board.cache_hierarchy.ruby_system.network.routers3 -->
<g id="edge10" class="edge">
<title>board.cache_hierarchy.ruby_system.network.routers1&#45;&#45;board.cache_hierarchy.ruby_system.network.routers3</title>
<path fill="none" stroke="#042d50" d="M154.45,-134.85C158.59,-140.53 163.79,-146.88 169.2,-152.96"/>
<polygon fill="#042d50" stroke="#042d50" points="166.76,-155.47 176.12,-160.44 171.9,-150.72 166.76,-155.47"/>
</g>
<!-- board.cache_hierarchy.ruby_system.network.routers1&#45;&#45;board.cache_hierarchy.ruby_system.network.routers4 -->
<g id="edge11" class="edge">
<title>board.cache_hierarchy.ruby_system.network.routers1&#45;&#45;board.cache_hierarchy.ruby_system.network.routers4</title>
<path fill="none" stroke="#042d50" d="M161.59,-134.75C167.39,-139.45 174.21,-144.46 181.06,-149.08"/>
<polygon fill="#042d50" stroke="#042d50" points="179.38,-152.16 189.67,-154.66 183.19,-146.28 179.38,-152.16"/>
</g>
<!-- board.cache_hierarchy.ruby_system.network.routers1&#45;&#45;board.cache_hierarchy.ruby_system.network.routers5 -->
<g id="edge12" class="edge">
<title>board.cache_hierarchy.ruby_system.network.routers1&#45;&#45;board.cache_hierarchy.ruby_system.network.routers5</title>
<path fill="none" stroke="#042d50" d="M145.83,-134.73C147.57,-143.21 150.52,-153.49 153.85,-162.91"/>
<polygon fill="#042d50" stroke="#042d50" points="150.59,-164.19 157.42,-172.3 157.14,-161.7 150.59,-164.19"/>
</g>
<!-- board.cache_hierarchy.ruby_system.network.routers1&#45;&#45;board.cache_hierarchy.ruby_system.network.routers6 -->
<g id="edge13" class="edge">
<title>board.cache_hierarchy.ruby_system.network.routers1&#45;&#45;board.cache_hierarchy.ruby_system.network.routers6</title>
<path fill="none" stroke="#042d50" d="M173.06,-120.07C173.1,-120.07 173.15,-120.06 173.2,-120.05"/>
<polygon fill="#042d50" stroke="#042d50" points="163.91,-124.86 173.34,-120.03 162.96,-117.92 163.91,-124.86"/>
</g>
<!-- board.cache_hierarchy.ruby_system.network.routers1&#45;&#45;board.cache_hierarchy.ruby_system.network.routers7 -->
<g id="edge14" class="edge">
<title>board.cache_hierarchy.ruby_system.network.routers1&#45;&#45;board.cache_hierarchy.ruby_system.network.routers7</title>
<path fill="none" stroke="#042d50" d="M173.06,-128.23C177.22,-129.18 181.58,-130.06 185.92,-130.81"/>
<polygon fill="#042d50" stroke="#042d50" points="185.47,-134.29 195.88,-132.34 186.52,-127.37 185.47,-134.29"/>
</g>
<!-- board.cache_hierarchy.ruby_system.network.routers1&#45;&#45;board.cache_hierarchy.ruby_system.network.routers8 -->
<g id="edge15" class="edge">
<title>board.cache_hierarchy.ruby_system.network.routers1&#45;&#45;board.cache_hierarchy.ruby_system.network.routers8</title>
<path fill="none" stroke="#042d50" d="M139.09,-134.84C138.74,-137.94 138.51,-141.22 138.41,-144.51"/>
<polygon fill="#042d50" stroke="#042d50" points="134.91,-144.85 138.49,-154.82 141.91,-144.79 134.91,-144.85"/>
</g>
<!-- board.cache_hierarchy.ruby_system.network.routers2&#45;&#45;board.cache_hierarchy.ruby_system.network.routers0 -->
<g id="edge16" class="edge">
<title>board.cache_hierarchy.ruby_system.network.routers2&#45;&#45;board.cache_hierarchy.ruby_system.network.routers0</title>
<path fill="none" stroke="#042d50" d="M160.69,-127.22C160.84,-127.06 161,-126.91 161.16,-126.75"/>
<polygon fill="#042d50" stroke="#042d50" points="163.48,-129.39 167.8,-119.71 158.39,-124.58 163.48,-129.39"/>
</g>
<!-- board.cache_hierarchy.ruby_system.network.routers2&#45;&#45;board.cache_hierarchy.ruby_system.network.routers3 -->
<g id="edge17" class="edge">
<title>board.cache_hierarchy.ruby_system.network.routers2&#45;&#45;board.cache_hierarchy.ruby_system.network.routers3</title>
<path fill="none" stroke="#042d50" d="M160.63,-158.04C162,-158.74 163.39,-159.45 164.79,-160.17"/>
<polygon fill="#042d50" stroke="#042d50" points="163.47,-163.43 173.97,-164.87 166.67,-157.2 163.47,-163.43"/>
</g>
<!-- board.cache_hierarchy.ruby_system.network.routers2&#45;&#45;board.cache_hierarchy.ruby_system.network.routers4 -->
<g id="edge18" class="edge">
<title>board.cache_hierarchy.ruby_system.network.routers2&#45;&#45;board.cache_hierarchy.ruby_system.network.routers4</title>
<path fill="none" stroke="#042d50" d="M160.67,-157.86C166.77,-159.75 173.35,-161.54 179.79,-163.07"/>
<polygon fill="#042d50" stroke="#042d50" points="179.18,-166.51 189.69,-165.22 180.67,-159.68 179.18,-166.51"/>
</g>
<!-- board.cache_hierarchy.ruby_system.network.routers2&#45;&#45;board.cache_hierarchy.ruby_system.network.routers5 -->
<g id="edge19" class="edge">
<title>board.cache_hierarchy.ruby_system.network.routers2&#45;&#45;board.cache_hierarchy.ruby_system.network.routers5</title>
<path fill="none" stroke="#042d50" d="M139.82,-162.45C140.22,-163.07 140.63,-163.69 141.06,-164.31"/>
<polygon fill="#042d50" stroke="#042d50" points="138.27,-166.43 147.01,-172.42 143.91,-162.29 138.27,-166.43"/>
</g>
<!-- board.cache_hierarchy.ruby_system.network.routers2&#45;&#45;board.cache_hierarchy.ruby_system.network.routers6 -->
<g id="edge20" class="edge">
<title>board.cache_hierarchy.ruby_system.network.routers2&#45;&#45;board.cache_hierarchy.ruby_system.network.routers6</title>
<path fill="none" stroke="#042d50" d="M160.71,-137.03C162.82,-136 164.96,-134.91 167.09,-133.77"/>
<polygon fill="#042d50" stroke="#042d50" points="169.22,-136.59 176.2,-128.61 165.77,-130.5 169.22,-136.59"/>
</g>
<!-- board.cache_hierarchy.ruby_system.network.routers2&#45;&#45;board.cache_hierarchy.ruby_system.network.routers7 -->
<g id="edge21" class="edge">
<title>board.cache_hierarchy.ruby_system.network.routers2&#45;&#45;board.cache_hierarchy.ruby_system.network.routers7</title>
<path fill="none" stroke="#042d50" d="M160.85,-146.39C168.75,-145.7 177.52,-144.54 185.91,-143.11"/>
<polygon fill="#042d50" stroke="#042d50" points="186.7,-146.53 195.88,-141.25 185.41,-139.65 186.7,-146.53"/>
</g>
<!-- board.cache_hierarchy.ruby_system.network.routers2&#45;&#45;board.cache_hierarchy.ruby_system.network.routers8 -->
<g id="edge22" class="edge">
<title>board.cache_hierarchy.ruby_system.network.routers2&#45;&#45;board.cache_hierarchy.ruby_system.network.routers8</title>
<path fill="none" stroke="#042d50" d="M133.12,-162.24C133.14,-162.29 133.17,-162.34 133.19,-162.4"/>
<polygon fill="#042d50" stroke="#042d50" points="126.15,-154.69 133.25,-162.55 132.6,-151.97 126.15,-154.69"/>
</g>
<!-- board.cache_hierarchy.ruby_system.network.routers3&#45;&#45;board.cache_hierarchy.ruby_system.network.routers0 -->
<g id="edge23" class="edge">
<title>board.cache_hierarchy.ruby_system.network.routers3&#45;&#45;board.cache_hierarchy.ruby_system.network.routers0</title>
<path fill="none" stroke="#042d50" d="M201.36,-160.71C199.57,-151.36 196.33,-139.75 192.71,-129.29"/>
<polygon fill="#042d50" stroke="#042d50" points="195.92,-127.87 189.15,-119.72 189.36,-130.32 195.92,-127.87"/>
</g>
<!-- board.cache_hierarchy.ruby_system.network.routers3&#45;&#45;board.cache_hierarchy.ruby_system.network.routers1 -->
<g id="edge24" class="edge">
<title>board.cache_hierarchy.ruby_system.network.routers3&#45;&#45;board.cache_hierarchy.ruby_system.network.routers1</title>
<path fill="none" stroke="#042d50" d="M192.6,-160.47C188.46,-154.79 183.27,-148.44 177.85,-142.36"/>
<polygon fill="#042d50" stroke="#042d50" points="180.29,-139.85 170.93,-134.88 175.15,-144.6 180.29,-139.85"/>
</g>
<!-- board.cache_hierarchy.ruby_system.network.routers3&#45;&#45;board.cache_hierarchy.ruby_system.network.routers4 -->
<g id="edge25" class="edge">
<title>board.cache_hierarchy.ruby_system.network.routers3&#45;&#45;board.cache_hierarchy.ruby_system.network.routers4</title>
<path fill="none" stroke="#042d50" d="M216.88,-165.83C216.89,-165.82 216.9,-165.82 216.9,-165.81"/>
<polygon fill="#042d50" stroke="#042d50" points="211.35,-174.85 216.92,-165.8 206.93,-169.4 211.35,-174.85"/>
</g>
<!-- board.cache_hierarchy.ruby_system.network.routers3&#45;&#45;board.cache_hierarchy.ruby_system.network.routers5 -->
<g id="edge26" class="edge">
<title>board.cache_hierarchy.ruby_system.network.routers3&#45;&#45;board.cache_hierarchy.ruby_system.network.routers5</title>
<path fill="none" stroke="#042d50" d="M173.73,-183.11C173.68,-183.15 173.64,-183.19 173.59,-183.22"/>
<polygon fill="#042d50" stroke="#042d50" points="179.25,-174.48 173.44,-183.34 183.51,-180.04 179.25,-174.48"/>
</g>
<!-- board.cache_hierarchy.ruby_system.network.routers3&#45;&#45;board.cache_hierarchy.ruby_system.network.routers6 -->
<g id="edge27" class="edge">
<title>board.cache_hierarchy.ruby_system.network.routers3&#45;&#45;board.cache_hierarchy.ruby_system.network.routers6</title>
<path fill="none" stroke="#042d50" d="M205.7,-160.71C205.88,-154.01 205.55,-146.22 204.81,-138.81"/>
<polygon fill="#042d50" stroke="#042d50" points="208.26,-138.2 203.5,-128.73 201.32,-139.1 208.26,-138.2"/>
</g>
<!-- board.cache_hierarchy.ruby_system.network.routers3&#45;&#45;board.cache_hierarchy.ruby_system.network.routers7 -->
<g id="edge28" class="edge">
<title>board.cache_hierarchy.ruby_system.network.routers3&#45;&#45;board.cache_hierarchy.ruby_system.network.routers7</title>
<path fill="none" stroke="#042d50" d="M216.65,-160.64C217,-159.93 217.35,-159.22 217.68,-158.49"/>
<polygon fill="#042d50" stroke="#042d50" points="220.99,-159.66 221.58,-149.08 214.52,-156.98 220.99,-159.66"/>
</g>
<!-- board.cache_hierarchy.ruby_system.network.routers3&#45;&#45;board.cache_hierarchy.ruby_system.network.routers8 -->
<g id="edge29" class="edge">
<title>board.cache_hierarchy.ruby_system.network.routers3&#45;&#45;board.cache_hierarchy.ruby_system.network.routers8</title>
<path fill="none" stroke="#042d50" d="M173.97,-169.19C173.86,-169.17 173.75,-169.16 173.64,-169.15"/>
<polygon fill="#042d50" stroke="#042d50" points="181.56,-166.39 171.27,-168.93 180.89,-173.36 181.56,-166.39"/>
</g>
<!-- board.cache_hierarchy.ruby_system.network.routers4&#45;&#45;board.cache_hierarchy.ruby_system.network.routers0 -->
<g id="edge30" class="edge">
<title>board.cache_hierarchy.ruby_system.network.routers4&#45;&#45;board.cache_hierarchy.ruby_system.network.routers0</title>
<path fill="none" stroke="#042d50" d="M212.51,-147.51C209.62,-141.55 205.82,-134.82 201.77,-128.38"/>
<polygon fill="#042d50" stroke="#042d50" points="204.59,-126.29 196.15,-119.88 198.75,-130.15 204.59,-126.29"/>
</g>
<!-- board.cache_hierarchy.ruby_system.network.routers4&#45;&#45;board.cache_hierarchy.ruby_system.network.routers1 -->
<g id="edge31" class="edge">
<title>board.cache_hierarchy.ruby_system.network.routers4&#45;&#45;board.cache_hierarchy.ruby_system.network.routers1</title>
<path fill="none" stroke="#042d50" d="M201.39,-147.63C195.6,-142.93 188.77,-137.93 181.92,-133.31"/>
<polygon fill="#042d50" stroke="#042d50" points="183.61,-130.23 173.32,-127.72 179.8,-136.1 183.61,-130.23"/>
</g>
<!-- board.cache_hierarchy.ruby_system.network.routers4&#45;&#45;board.cache_hierarchy.ruby_system.network.routers2 -->
<g id="edge32" class="edge">
<title>board.cache_hierarchy.ruby_system.network.routers4&#45;&#45;board.cache_hierarchy.ruby_system.network.routers2</title>
<path fill="none" stroke="#042d50" d="M189.88,-152.11C183.77,-150.23 177.19,-148.44 170.75,-146.91"/>
<polygon fill="#042d50" stroke="#042d50" points="171.36,-143.46 160.85,-144.75 169.87,-150.3 171.36,-143.46"/>
</g>
<!-- board.cache_hierarchy.ruby_system.network.routers4&#45;&#45;board.cache_hierarchy.ruby_system.network.routers5 -->
<g id="edge33" class="edge">
<title>board.cache_hierarchy.ruby_system.network.routers4&#45;&#45;board.cache_hierarchy.ruby_system.network.routers5</title>
<path fill="none" stroke="#042d50" d="M189.67,-180.02C189.59,-180.06 189.51,-180.1 189.42,-180.15"/>
<polygon fill="#042d50" stroke="#042d50" points="196.42,-172.54 189.18,-180.27 199.66,-178.75 196.42,-172.54"/>
</g>
<!-- board.cache_hierarchy.ruby_system.network.routers4&#45;&#45;board.cache_hierarchy.ruby_system.network.routers6 -->
<g id="edge34" class="edge">
<title>board.cache_hierarchy.ruby_system.network.routers4&#45;&#45;board.cache_hierarchy.ruby_system.network.routers6</title>
<path fill="none" stroke="#042d50" d="M216.69,-147.61C215.86,-144.56 214.84,-141.35 213.69,-138.13"/>
<polygon fill="#042d50" stroke="#042d50" points="216.87,-136.66 209.93,-128.66 210.37,-139.24 216.87,-136.66"/>
</g>
<!-- board.cache_hierarchy.ruby_system.network.routers4&#45;&#45;board.cache_hierarchy.ruby_system.network.routers7 -->
<g id="edge35" class="edge">
<title>board.cache_hierarchy.ruby_system.network.routers4&#45;&#45;board.cache_hierarchy.ruby_system.network.routers7</title>
<path fill="none" stroke="#042d50" d="M226.9,-147.39C226.91,-147.33 226.92,-147.27 226.93,-147.2"/>
<polygon fill="#042d50" stroke="#042d50" points="229.17,-157.38 226.95,-147.02 222.23,-156.5 229.17,-157.38"/>
</g>
<!-- board.cache_hierarchy.ruby_system.network.routers4&#45;&#45;board.cache_hierarchy.ruby_system.network.routers8 -->
<g id="edge36" class="edge">
<title>board.cache_hierarchy.ruby_system.network.routers4&#45;&#45;board.cache_hierarchy.ruby_system.network.routers8</title>
<path fill="none" stroke="#042d50" d="M189.64,-161.91C187.08,-162.05 184.45,-162.23 181.81,-162.47"/>
<polygon fill="#042d50" stroke="#042d50" points="181.26,-159.01 171.72,-163.61 182.05,-165.97 181.26,-159.01"/>
</g>
<!-- board.cache_hierarchy.ruby_system.network.routers5&#45;&#45;board.cache_hierarchy.ruby_system.network.routers0 -->
<g id="edge37" class="edge">
<title>board.cache_hierarchy.ruby_system.network.routers5&#45;&#45;board.cache_hierarchy.ruby_system.network.routers0</title>
<path fill="none" stroke="#042d50" d="M176.85,-172.12C179.13,-159.88 180.77,-143.55 181.2,-129.69"/>
<polygon fill="#042d50" stroke="#042d50" points="184.7,-129.71 181.28,-119.68 177.7,-129.65 184.7,-129.71"/>
</g>
<!-- board.cache_hierarchy.ruby_system.network.routers5&#45;&#45;board.cache_hierarchy.ruby_system.network.routers1 -->
<g id="edge38" class="edge">
<title>board.cache_hierarchy.ruby_system.network.routers5&#45;&#45;board.cache_hierarchy.ruby_system.network.routers1</title>
<path fill="none" stroke="#042d50" d="M169.82,-172.36C168.09,-163.87 165.13,-153.59 161.8,-144.18"/>
<polygon fill="#042d50" stroke="#042d50" points="165.06,-142.89 158.23,-134.79 158.51,-145.38 165.06,-142.89"/>
</g>
<!-- board.cache_hierarchy.ruby_system.network.routers5&#45;&#45;board.cache_hierarchy.ruby_system.network.routers2 -->
<g id="edge39" class="edge">
<title>board.cache_hierarchy.ruby_system.network.routers5&#45;&#45;board.cache_hierarchy.ruby_system.network.routers2</title>
<path fill="none" stroke="#042d50" d="M163.38,-172.23C162.98,-171.61 162.57,-170.99 162.15,-170.37"/>
<polygon fill="#042d50" stroke="#042d50" points="164.93,-168.25 156.2,-162.26 159.29,-172.39 164.93,-168.25"/>
</g>
<!-- board.cache_hierarchy.ruby_system.network.routers5&#45;&#45;board.cache_hierarchy.ruby_system.network.routers3 -->
<g id="edge40" class="edge">
<title>board.cache_hierarchy.ruby_system.network.routers5&#45;&#45;board.cache_hierarchy.ruby_system.network.routers3</title>
<path fill="none" stroke="#042d50" d="M196.86,-186.11C196.91,-186.07 196.96,-186.03 197,-185.99"/>
<polygon fill="#042d50" stroke="#042d50" points="191.34,-194.74 197.15,-185.88 187.08,-189.18 191.34,-194.74"/>
</g>
<!-- board.cache_hierarchy.ruby_system.network.routers5&#45;&#45;board.cache_hierarchy.ruby_system.network.routers6 -->
<g id="edge41" class="edge">
<title>board.cache_hierarchy.ruby_system.network.routers5&#45;&#45;board.cache_hierarchy.ruby_system.network.routers6</title>
<path fill="none" stroke="#042d50" d="M175.6,-172.33C178.92,-162.3 183.11,-149.63 186.84,-138.37"/>
<polygon fill="#042d50" stroke="#042d50" points="190.27,-139.14 190.09,-128.54 183.62,-136.94 190.27,-139.14"/>
</g>
<!-- board.cache_hierarchy.ruby_system.network.routers5&#45;&#45;board.cache_hierarchy.ruby_system.network.routers7 -->
<g id="edge42" class="edge">
<title>board.cache_hierarchy.ruby_system.network.routers5&#45;&#45;board.cache_hierarchy.ruby_system.network.routers7</title>
<path fill="none" stroke="#042d50" d="M194.66,-172.31C199.34,-167.45 204.09,-162.12 208.34,-156.94"/>
<polygon fill="#042d50" stroke="#042d50" points="211.14,-159.04 214.54,-149.01 205.62,-154.73 211.14,-159.04"/>
</g>
<!-- board.cache_hierarchy.ruby_system.network.routers5&#45;&#45;board.cache_hierarchy.ruby_system.network.routers8 -->
<g id="edge43" class="edge">
<title>board.cache_hierarchy.ruby_system.network.routers5&#45;&#45;board.cache_hierarchy.ruby_system.network.routers8</title>
<path fill="none" stroke="#042d50" d="M154.04,-172.47C153.97,-172.45 153.9,-172.42 153.84,-172.4"/>
<polygon fill="#042d50" stroke="#042d50" points="164.23,-172.67 153.64,-172.32 161.7,-179.2 164.23,-172.67"/>
</g>
<!-- board.cache_hierarchy.ruby_system.network.routers6&#45;&#45;board.cache_hierarchy.ruby_system.network.routers0 -->
<g id="edge44" class="edge">
<title>board.cache_hierarchy.ruby_system.network.routers6&#45;&#45;board.cache_hierarchy.ruby_system.network.routers0</title>
<path fill="none" stroke="#042d50" d="M177.51,-101.21C177.49,-101.24 177.48,-101.27 177.46,-101.3"/>
<polygon fill="#042d50" stroke="#042d50" points="179.01,-90.92 177.41,-101.39 185.19,-94.2 179.01,-90.92"/>
</g>
<!-- board.cache_hierarchy.ruby_system.network.routers6&#45;&#45;board.cache_hierarchy.ruby_system.network.routers1 -->
<g id="edge45" class="edge">
<title>board.cache_hierarchy.ruby_system.network.routers6&#45;&#45;board.cache_hierarchy.ruby_system.network.routers1</title>
<path fill="none" stroke="#042d50" d="M169.07,-106.97C169.02,-106.98 168.97,-106.99 168.93,-106.99"/>
<polygon fill="#042d50" stroke="#042d50" points="178.22,-102.19 168.79,-107.01 179.17,-109.12 178.22,-102.19"/>
</g>
<!-- board.cache_hierarchy.ruby_system.network.routers6&#45;&#45;board.cache_hierarchy.ruby_system.network.routers2 -->
<g id="edge46" class="edge">
<title>board.cache_hierarchy.ruby_system.network.routers6&#45;&#45;board.cache_hierarchy.ruby_system.network.routers2</title>
<path fill="none" stroke="#042d50" d="M168.97,-117.6C166.86,-118.64 164.72,-119.73 162.59,-120.86"/>
<polygon fill="#042d50" stroke="#042d50" points="160.46,-118.05 153.48,-126.02 163.91,-124.14 160.46,-118.05"/>
</g>
<!-- board.cache_hierarchy.ruby_system.network.routers6&#45;&#45;board.cache_hierarchy.ruby_system.network.routers3 -->
<g id="edge47" class="edge">
<title>board.cache_hierarchy.ruby_system.network.routers6&#45;&#45;board.cache_hierarchy.ruby_system.network.routers3</title>
<path fill="none" stroke="#042d50" d="M191.37,-128.47C191.18,-135.17 191.51,-142.96 192.26,-150.37"/>
<polygon fill="#042d50" stroke="#042d50" points="188.81,-150.98 193.56,-160.45 195.75,-150.08 188.81,-150.98"/>
</g>
<!-- board.cache_hierarchy.ruby_system.network.routers6&#45;&#45;board.cache_hierarchy.ruby_system.network.routers4 -->
<g id="edge48" class="edge">
<title>board.cache_hierarchy.ruby_system.network.routers6&#45;&#45;board.cache_hierarchy.ruby_system.network.routers4</title>
<path fill="none" stroke="#042d50" d="M196.32,-128.64C197.14,-131.68 198.16,-134.9 199.31,-138.11"/>
<polygon fill="#042d50" stroke="#042d50" points="196.13,-139.59 203.07,-147.59 202.63,-137 196.13,-139.59"/>
</g>
<!-- board.cache_hierarchy.ruby_system.network.routers6&#45;&#45;board.cache_hierarchy.ruby_system.network.routers7 -->
<g id="edge49" class="edge">
<title>board.cache_hierarchy.ruby_system.network.routers6&#45;&#45;board.cache_hierarchy.ruby_system.network.routers7</title>
<path fill="none" stroke="#042d50" d="M220.07,-128.63C220.12,-128.67 220.18,-128.72 220.23,-128.76"/>
<polygon fill="#042d50" stroke="#042d50" points="210.31,-125.63 220.39,-128.88 214.53,-120.05 210.31,-125.63"/>
</g>
<!-- board.cache_hierarchy.ruby_system.network.routers6&#45;&#45;board.cache_hierarchy.ruby_system.network.routers8 -->
<g id="edge50" class="edge">
<title>board.cache_hierarchy.ruby_system.network.routers6&#45;&#45;board.cache_hierarchy.ruby_system.network.routers8</title>
<path fill="none" stroke="#042d50" d="M172.66,-128.51C167.63,-134.05 162.48,-140.24 157.95,-146.22"/>
<polygon fill="#042d50" stroke="#042d50" points="154.83,-144.55 151.82,-154.71 160.51,-148.65 154.83,-144.55"/>
</g>
<!-- board.cache_hierarchy.ruby_system.network.routers7&#45;&#45;board.cache_hierarchy.ruby_system.network.routers0 -->
<g id="edge51" class="edge">
<title>board.cache_hierarchy.ruby_system.network.routers7&#45;&#45;board.cache_hierarchy.ruby_system.network.routers0</title>
<path fill="none" stroke="#042d50" d="M207.2,-112.79C207.09,-112.72 206.99,-112.64 206.88,-112.57"/>
<polygon fill="#042d50" stroke="#042d50" points="214.86,-113.69 204.6,-111.04 210.97,-119.51 214.86,-113.69"/>
</g>
<!-- board.cache_hierarchy.ruby_system.network.routers7&#45;&#45;board.cache_hierarchy.ruby_system.network.routers1 -->
<g id="edge52" class="edge">
<title>board.cache_hierarchy.ruby_system.network.routers7&#45;&#45;board.cache_hierarchy.ruby_system.network.routers1</title>
<path fill="none" stroke="#042d50" d="M195.94,-119.17C191.78,-118.22 187.42,-117.34 183.08,-116.59"/>
<polygon fill="#042d50" stroke="#042d50" points="183.53,-113.12 173.12,-115.07 182.48,-120.04 183.53,-113.12"/>
</g>
<!-- board.cache_hierarchy.ruby_system.network.routers7&#45;&#45;board.cache_hierarchy.ruby_system.network.routers2 -->
<g id="edge53" class="edge">
<title>board.cache_hierarchy.ruby_system.network.routers7&#45;&#45;board.cache_hierarchy.ruby_system.network.routers2</title>
<path fill="none" stroke="#042d50" d="M195.7,-128.6C187.8,-129.3 179.04,-130.45 170.64,-131.88"/>
<polygon fill="#042d50" stroke="#042d50" points="169.86,-128.47 160.67,-133.75 171.15,-135.35 169.86,-128.47"/>
</g>
<!-- board.cache_hierarchy.ruby_system.network.routers7&#45;&#45;board.cache_hierarchy.ruby_system.network.routers3 -->
<g id="edge54" class="edge">
<title>board.cache_hierarchy.ruby_system.network.routers7&#45;&#45;board.cache_hierarchy.ruby_system.network.routers3</title>
<path fill="none" stroke="#042d50" d="M207.29,-148.9C206.94,-149.61 206.59,-150.32 206.26,-151.04"/>
<polygon fill="#042d50" stroke="#042d50" points="202.95,-149.88 202.36,-160.45 209.42,-152.56 202.95,-149.88"/>
</g>
<!-- board.cache_hierarchy.ruby_system.network.routers7&#45;&#45;board.cache_hierarchy.ruby_system.network.routers4 -->
<g id="edge55" class="edge">
<title>board.cache_hierarchy.ruby_system.network.routers7&#45;&#45;board.cache_hierarchy.ruby_system.network.routers4</title>
<path fill="none" stroke="#042d50" d="M212.97,-149.21C212.97,-149.27 212.96,-149.34 212.95,-149.4"/>
<polygon fill="#042d50" stroke="#042d50" points="210.7,-139.23 212.93,-149.59 217.65,-140.1 210.7,-139.23"/>
</g>
<!-- board.cache_hierarchy.ruby_system.network.routers7&#45;&#45;board.cache_hierarchy.ruby_system.network.routers5 -->
<g id="edge56" class="edge">
<title>board.cache_hierarchy.ruby_system.network.routers7&#45;&#45;board.cache_hierarchy.ruby_system.network.routers5</title>
<path fill="none" stroke="#042d50" d="M197.88,-149C193.2,-153.85 188.45,-159.18 184.2,-164.36"/>
<polygon fill="#042d50" stroke="#042d50" points="181.4,-162.26 178,-172.3 186.92,-166.57 181.4,-162.26"/>
</g>
<!-- board.cache_hierarchy.ruby_system.network.routers7&#45;&#45;board.cache_hierarchy.ruby_system.network.routers8 -->
<g id="edge57" class="edge">
<title>board.cache_hierarchy.ruby_system.network.routers7&#45;&#45;board.cache_hierarchy.ruby_system.network.routers8</title>
<path fill="none" stroke="#042d50" d="M195.86,-145.31C190.92,-147.96 185.68,-150.76 180.52,-153.52"/>
<polygon fill="#042d50" stroke="#042d50" points="178.55,-150.61 171.38,-158.41 181.85,-156.78 178.55,-150.61"/>
</g>
<!-- board.cache_hierarchy.ruby_system.network.routers8&#45;&#45;board.cache_hierarchy.ruby_system.network.routers0 -->
<g id="edge58" class="edge">
<title>board.cache_hierarchy.ruby_system.network.routers8&#45;&#45;board.cache_hierarchy.ruby_system.network.routers0</title>
<path fill="none" stroke="#042d50" d="M159.43,-154.9C163.68,-147.24 168,-138.14 171.47,-129.64"/>
<polygon fill="#042d50" stroke="#042d50" points="174.83,-130.65 175.09,-120.06 168.28,-128.18 174.83,-130.65"/>
</g>
<!-- board.cache_hierarchy.ruby_system.network.routers8&#45;&#45;board.cache_hierarchy.ruby_system.network.routers1 -->
<g id="edge59" class="edge">
<title>board.cache_hierarchy.ruby_system.network.routers8&#45;&#45;board.cache_hierarchy.ruby_system.network.routers1</title>
<path fill="none" stroke="#042d50" d="M151.22,-154.69C151.56,-151.59 151.79,-148.31 151.9,-145.02"/>
<polygon fill="#042d50" stroke="#042d50" points="155.4,-144.68 151.81,-134.71 148.4,-144.74 155.4,-144.68"/>
</g>
<!-- board.cache_hierarchy.ruby_system.network.routers8&#45;&#45;board.cache_hierarchy.ruby_system.network.routers2 -->
<g id="edge60" class="edge">
<title>board.cache_hierarchy.ruby_system.network.routers8&#45;&#45;board.cache_hierarchy.ruby_system.network.routers2</title>
<path fill="none" stroke="#042d50" d="M144.74,-154.88C144.72,-154.83 144.7,-154.78 144.67,-154.73"/>
<polygon fill="#042d50" stroke="#042d50" points="151.71,-162.44 144.61,-154.57 145.26,-165.15 151.71,-162.44"/>
</g>
<!-- board.cache_hierarchy.ruby_system.network.routers8&#45;&#45;board.cache_hierarchy.ruby_system.network.routers3 -->
<g id="edge61" class="edge">
<title>board.cache_hierarchy.ruby_system.network.routers8&#45;&#45;board.cache_hierarchy.ruby_system.network.routers3</title>
<path fill="none" stroke="#042d50" d="M171.27,-182.48C171.39,-182.49 171.5,-182.5 171.61,-182.51"/>
<polygon fill="#042d50" stroke="#042d50" points="163.69,-185.27 173.97,-182.74 164.35,-178.3 163.69,-185.27"/>
</g>
<!-- board.cache_hierarchy.ruby_system.network.routers8&#45;&#45;board.cache_hierarchy.ruby_system.network.routers4 -->
<g id="edge62" class="edge">
<title>board.cache_hierarchy.ruby_system.network.routers8&#45;&#45;board.cache_hierarchy.ruby_system.network.routers4</title>
<path fill="none" stroke="#042d50" d="M171.54,-176.82C174.1,-176.69 176.73,-176.5 179.37,-176.26"/>
<polygon fill="#042d50" stroke="#042d50" points="179.92,-179.72 189.46,-175.12 179.13,-172.77 179.92,-179.72"/>
</g>
<!-- board.cache_hierarchy.ruby_system.network.routers8&#45;&#45;board.cache_hierarchy.ruby_system.network.routers5 -->
<g id="edge63" class="edge">
<title>board.cache_hierarchy.ruby_system.network.routers8&#45;&#45;board.cache_hierarchy.ruby_system.network.routers5</title>
<path fill="none" stroke="#042d50" d="M159.81,-190.96C159.88,-190.98 159.94,-191.01 160.01,-191.03"/>
<polygon fill="#042d50" stroke="#042d50" points="149.62,-190.76 160.21,-191.11 152.15,-184.23 149.62,-190.76"/>
</g>
<!-- board.cache_hierarchy.ruby_system.network.routers8&#45;&#45;board.cache_hierarchy.ruby_system.network.routers6 -->
<g id="edge64" class="edge">
<title>board.cache_hierarchy.ruby_system.network.routers8&#45;&#45;board.cache_hierarchy.ruby_system.network.routers6</title>
<path fill="none" stroke="#042d50" d="M167.66,-154.88C172.69,-149.34 177.84,-143.15 182.37,-137.17"/>
<polygon fill="#042d50" stroke="#042d50" points="185.49,-138.84 188.5,-128.68 179.81,-134.74 185.49,-138.84"/>
</g>
<!-- board.cache_hierarchy.ruby_system.l1_controllers0 -->
<g id="node10" class="node">
<title>board.cache_hierarchy.ruby_system.l1_controllers0</title>
<path fill="#e5bcd0" stroke="#000000" d="M194.62,-11.91C194.62,-11.91 274.62,-11.91 274.62,-11.91 280.62,-11.91 286.62,-17.91 286.62,-23.91 286.62,-23.91 286.62,-35.91 286.62,-35.91 286.62,-41.91 280.62,-47.91 274.62,-47.91 274.62,-47.91 194.62,-47.91 194.62,-47.91 188.62,-47.91 182.62,-41.91 182.62,-35.91 182.62,-35.91 182.62,-23.91 182.62,-23.91 182.62,-17.91 188.62,-11.91 194.62,-11.91"/>
<text text-anchor="middle" x="234.62" y="-26.21" font-family="Arial" font-size="14.00" fill="#000000">l1_controllers0</text>
</g>
<!-- board.cache_hierarchy.ruby_system.l1_controllers0&#45;&#45;board.cache_hierarchy.ruby_system.network.routers0 -->
<g id="edge65" class="edge">
<title>board.cache_hierarchy.ruby_system.l1_controllers0&#45;&#45;board.cache_hierarchy.ruby_system.network.routers0</title>
<path fill="none" stroke="#381526" d="M213.78,-55.98C208.81,-62.19 203.5,-68.84 198.51,-75.08"/>
<polygon fill="#381526" stroke="#381526" points="216.65,-57.99 220.16,-48 211.18,-53.62 216.65,-57.99"/>
<polygon fill="#381526" stroke="#381526" points="195.49,-73.26 191.97,-83.25 200.95,-77.63 195.49,-73.26"/>
</g>
<!-- board.cache_hierarchy.ruby_system.l1_controllers1 -->
<g id="node11" class="node">
<title>board.cache_hierarchy.ruby_system.l1_controllers1</title>
<path fill="#e5bcd0" stroke="#000000" d="M42.87,-39.81C42.87,-39.81 122.87,-39.81 122.87,-39.81 128.87,-39.81 134.87,-45.81 134.87,-51.81 134.87,-51.81 134.87,-63.81 134.87,-63.81 134.87,-69.81 128.87,-75.81 122.87,-75.81 122.87,-75.81 42.87,-75.81 42.87,-75.81 36.87,-75.81 30.87,-69.81 30.87,-63.81 30.87,-63.81 30.87,-51.81 30.87,-51.81 30.87,-45.81 36.87,-39.81 42.87,-39.81"/>
<text text-anchor="middle" x="82.87" y="-54.11" font-family="Arial" font-size="14.00" fill="#000000">l1_controllers1</text>
</g>
<!-- board.cache_hierarchy.ruby_system.l1_controllers1&#45;&#45;board.cache_hierarchy.ruby_system.network.routers1 -->
<g id="edge66" class="edge">
<title>board.cache_hierarchy.ruby_system.l1_controllers1&#45;&#45;board.cache_hierarchy.ruby_system.network.routers1</title>
<path fill="none" stroke="#381526" d="M109.97,-83.02C113.04,-85.87 116.16,-88.78 119.22,-91.63"/>
<polygon fill="#381526" stroke="#381526" points="112.22,-80.33 102.52,-76.08 107.46,-85.46 112.22,-80.33"/>
<polygon fill="#381526" stroke="#381526" points="116.93,-94.28 126.64,-98.53 121.7,-89.15 116.93,-94.28"/>
</g>
<!-- board.cache_hierarchy.ruby_system.l2_controllers -->
<g id="node12" class="node">
<title>board.cache_hierarchy.ruby_system.l2_controllers</title>
<path fill="#e5bcd0" stroke="#000000" d="M12,-121.31C12,-121.31 85,-121.31 85,-121.31 91,-121.31 97,-127.31 97,-133.31 97,-133.31 97,-145.31 97,-145.31 97,-151.31 91,-157.31 85,-157.31 85,-157.31 12,-157.31 12,-157.31 6,-157.31 0,-151.31 0,-145.31 0,-145.31 0,-133.31 0,-133.31 0,-127.31 6,-121.31 12,-121.31"/>
<text text-anchor="middle" x="48.5" y="-135.61" font-family="Arial" font-size="14.00" fill="#000000">l2_controllers</text>
</g>
<!-- board.cache_hierarchy.ruby_system.l2_controllers&#45;&#45;board.cache_hierarchy.ruby_system.network.routers2 -->
<g id="edge67" class="edge">
<title>board.cache_hierarchy.ruby_system.l2_controllers&#45;&#45;board.cache_hierarchy.ruby_system.network.routers2</title>
<path fill="none" stroke="#381526" d="M105.95,-142.6C105.99,-142.6 106.04,-142.61 106.09,-142.61"/>
<polygon fill="#381526" stroke="#381526" points="107.21,-139.17 97.02,-142.09 106.81,-146.16 107.21,-139.17"/>
<polygon fill="#381526" stroke="#381526" points="96.04,-145.53 106.23,-142.62 96.45,-138.54 96.04,-145.53"/>
</g>
<!-- board.cache_hierarchy.ruby_system.directory_controllers0 -->
<g id="node13" class="node">
<title>board.cache_hierarchy.ruby_system.directory_controllers0</title>
<path fill="#e5bcd0" stroke="#000000" d="M231.37,-185.29C231.37,-185.29 353.37,-185.29 353.37,-185.29 359.37,-185.29 365.37,-191.29 365.37,-197.29 365.37,-197.29 365.37,-209.29 365.37,-209.29 365.37,-215.29 359.37,-221.29 353.37,-221.29 353.37,-221.29 231.37,-221.29 231.37,-221.29 225.37,-221.29 219.37,-215.29 219.37,-209.29 219.37,-209.29 219.37,-197.29 219.37,-197.29 219.37,-191.29 225.37,-185.29 231.37,-185.29"/>
<text text-anchor="middle" x="292.37" y="-199.59" font-family="Arial" font-size="14.00" fill="#000000">directory_controllers0</text>
</g>
<!-- board.cache_hierarchy.ruby_system.directory_controllers0&#45;&#45;board.cache_hierarchy.ruby_system.network.routers3 -->
<g id="edge68" class="edge">
<title>board.cache_hierarchy.ruby_system.directory_controllers0&#45;&#45;board.cache_hierarchy.ruby_system.network.routers3</title>
<path fill="none" stroke="#381526" d="M224.84,-185.14C224.81,-185.13 224.79,-185.12 224.76,-185.12"/>
<polygon fill="#381526" stroke="#381526" points="214.43,-185.96 225,-185.18 216.25,-179.2 214.43,-185.96"/>
<polygon fill="#381526" stroke="#381526" points="235.25,-184.32 224.68,-185.09 233.43,-191.08 235.25,-184.32"/>
</g>
<!-- board.cache_hierarchy.ruby_system.directory_controllers1 -->
<g id="node14" class="node">
<title>board.cache_hierarchy.ruby_system.directory_controllers1</title>
<path fill="#e5bcd0" stroke="#000000" d="M190.68,-233.06C190.68,-233.06 312.68,-233.06 312.68,-233.06 318.68,-233.06 324.68,-239.06 324.68,-245.06 324.68,-245.06 324.68,-257.06 324.68,-257.06 324.68,-263.06 318.68,-269.06 312.68,-269.06 312.68,-269.06 190.68,-269.06 190.68,-269.06 184.68,-269.06 178.68,-263.06 178.68,-257.06 178.68,-257.06 178.68,-245.06 178.68,-245.06 178.68,-239.06 184.68,-233.06 190.68,-233.06"/>
<text text-anchor="middle" x="251.68" y="-247.36" font-family="Arial" font-size="14.00" fill="#000000">directory_controllers1</text>
</g>
<!-- board.cache_hierarchy.ruby_system.directory_controllers1&#45;&#45;board.cache_hierarchy.ruby_system.network.routers4 -->
<g id="edge69" class="edge">
<title>board.cache_hierarchy.ruby_system.directory_controllers1&#45;&#45;board.cache_hierarchy.ruby_system.network.routers4</title>
<path fill="none" stroke="#381526" d="M240.47,-223.55C236.53,-213.89 232.11,-203.05 228.18,-193.39"/>
<polygon fill="#381526" stroke="#381526" points="237.3,-225.04 244.31,-232.98 243.78,-222.39 237.3,-225.04"/>
<polygon fill="#381526" stroke="#381526" points="231.3,-191.79 224.29,-183.85 224.82,-194.43 231.3,-191.79"/>
</g>
<!-- board.cache_hierarchy.ruby_system.directory_controllers2 -->
<g id="node15" class="node">
<title>board.cache_hierarchy.ruby_system.directory_controllers2</title>
<path fill="#e5bcd0" stroke="#000000" d="M92.23,-255.75C92.23,-255.75 214.23,-255.75 214.23,-255.75 220.23,-255.75 226.23,-261.75 226.23,-267.75 226.23,-267.75 226.23,-279.75 226.23,-279.75 226.23,-285.75 220.23,-291.75 214.23,-291.75 214.23,-291.75 92.23,-291.75 92.23,-291.75 86.23,-291.75 80.23,-285.75 80.23,-279.75 80.23,-279.75 80.23,-267.75 80.23,-267.75 80.23,-261.75 86.23,-255.75 92.23,-255.75"/>
<text text-anchor="middle" x="153.23" y="-270.05" font-family="Arial" font-size="14.00" fill="#000000">directory_controllers2</text>
</g>
<!-- board.cache_hierarchy.ruby_system.directory_controllers2&#45;&#45;board.cache_hierarchy.ruby_system.network.routers5 -->
<g id="edge70" class="edge">
<title>board.cache_hierarchy.ruby_system.directory_controllers2&#45;&#45;board.cache_hierarchy.ruby_system.network.routers5</title>
<path fill="none" stroke="#381526" d="M158.78,-245.5C160.49,-236.81 162.37,-227.24 164.08,-218.56"/>
<polygon fill="#381526" stroke="#381526" points="155.28,-245.2 156.78,-255.69 162.15,-246.55 155.28,-245.2"/>
<polygon fill="#381526" stroke="#381526" points="167.56,-219.01 166.05,-208.52 160.69,-217.66 167.56,-219.01"/>
</g>
<!-- board.cache_hierarchy.ruby_system.dma_controllers0 -->
<g id="node16" class="node">
<title>board.cache_hierarchy.ruby_system.dma_controllers0</title>
<path fill="#e5bcd0" stroke="#000000" d="M124.8,-0.5C124.8,-0.5 221.8,-0.5 221.8,-0.5 227.8,-0.5 233.8,-6.5 233.8,-12.5 233.8,-12.5 233.8,-24.5 233.8,-24.5 233.8,-30.5 227.8,-36.5 221.8,-36.5 221.8,-36.5 124.8,-36.5 124.8,-36.5 118.8,-36.5 112.8,-30.5 112.8,-24.5 112.8,-24.5 112.8,-12.5 112.8,-12.5 112.8,-6.5 118.8,-0.5 124.8,-0.5"/>
<text text-anchor="middle" x="173.3" y="-14.8" font-family="Arial" font-size="14.00" fill="#000000">dma_controllers0</text>
</g>
<!-- board.cache_hierarchy.ruby_system.dma_controllers0&#45;&#45;board.cache_hierarchy.ruby_system.network.routers6 -->
<g id="edge71" class="edge">
<title>board.cache_hierarchy.ruby_system.dma_controllers0&#45;&#45;board.cache_hierarchy.ruby_system.network.routers6</title>
<path fill="none" stroke="#381526" d="M180.21,-46.41C183.04,-57.82 186.3,-71 189.13,-82.43"/>
<polygon fill="#381526" stroke="#381526" points="183.6,-45.53 177.8,-36.67 176.8,-47.22 183.6,-45.53"/>
<polygon fill="#381526" stroke="#381526" points="185.78,-83.46 191.58,-92.32 192.57,-81.78 185.78,-83.46"/>
</g>
<!-- board.cache_hierarchy.ruby_system.dma_controllers1 -->
<g id="node17" class="node">
<title>board.cache_hierarchy.ruby_system.dma_controllers1</title>
<path fill="#e5bcd0" stroke="#000000" d="M254.54,-85.64C254.54,-85.64 351.54,-85.64 351.54,-85.64 357.54,-85.64 363.54,-91.64 363.54,-97.64 363.54,-97.64 363.54,-109.64 363.54,-109.64 363.54,-115.64 357.54,-121.64 351.54,-121.64 351.54,-121.64 254.54,-121.64 254.54,-121.64 248.54,-121.64 242.54,-115.64 242.54,-109.64 242.54,-109.64 242.54,-97.64 242.54,-97.64 242.54,-91.64 248.54,-85.64 254.54,-85.64"/>
<text text-anchor="middle" x="303.04" y="-99.94" font-family="Arial" font-size="14.00" fill="#000000">dma_controllers1</text>
</g>
<!-- board.cache_hierarchy.ruby_system.dma_controllers1&#45;&#45;board.cache_hierarchy.ruby_system.network.routers7 -->
<g id="edge72" class="edge">
<title>board.cache_hierarchy.ruby_system.dma_controllers1&#45;&#45;board.cache_hierarchy.ruby_system.network.routers7</title>
<path fill="none" stroke="#381526" d="M249.44,-121.82C249.41,-121.83 249.39,-121.84 249.36,-121.85"/>
<polygon fill="#381526" stroke="#381526" points="241.27,-128.3 249.62,-121.76 239.02,-121.67 241.27,-128.3"/>
<polygon fill="#381526" stroke="#381526" points="257.61,-115.35 249.27,-121.88 259.87,-121.98 257.61,-115.35"/>
</g>
<!-- board.cache_hierarchy.ruby_system.dma_controllers2 -->
<g id="node18" class="node">
<title>board.cache_hierarchy.ruby_system.dma_controllers2</title>
<path fill="#e5bcd0" stroke="#000000" d="M27.95,-207.95C27.95,-207.95 124.95,-207.95 124.95,-207.95 130.95,-207.95 136.95,-213.95 136.95,-219.95 136.95,-219.95 136.95,-231.95 136.95,-231.95 136.95,-237.95 130.95,-243.95 124.95,-243.95 124.95,-243.95 27.95,-243.95 27.95,-243.95 21.95,-243.95 15.95,-237.95 15.95,-231.95 15.95,-231.95 15.95,-219.95 15.95,-219.95 15.95,-213.95 21.95,-207.95 27.95,-207.95"/>
<text text-anchor="middle" x="76.45" y="-222.25" font-family="Arial" font-size="14.00" fill="#000000">dma_controllers2</text>
</g>
<!-- board.cache_hierarchy.ruby_system.dma_controllers2&#45;&#45;board.cache_hierarchy.ruby_system.network.routers8 -->
<g id="edge73" class="edge">
<title>board.cache_hierarchy.ruby_system.dma_controllers2&#45;&#45;board.cache_hierarchy.ruby_system.network.routers8</title>
<path fill="none" stroke="#381526" d="M107.74,-201.48C109.43,-200.16 111.12,-198.84 112.81,-197.52"/>
<polygon fill="#381526" stroke="#381526" points="105.5,-198.79 99.78,-207.71 109.81,-204.31 105.5,-198.79"/>
<polygon fill="#381526" stroke="#381526" points="115.38,-199.95 121.1,-191.04 111.07,-194.44 115.38,-199.95"/>
</g>
</g>
</svg>
