<?xml version="1.0" encoding="UTF-8" standalone="no"?>
<!DOCTYPE svg PUBLIC "-//W3C//DTD SVG 1.1//EN"
 "http://www.w3.org/Graphics/SVG/1.1/DTD/svg11.dtd">
<!-- Generated by graphviz version 2.43.0 (0)
 -->
<!-- Title: G Pages: 1 -->
<svg width="392pt" height="287pt"
 viewBox="0.00 0.00 392.36 287.10" xmlns="http://www.w3.org/2000/svg" xmlns:xlink="http://www.w3.org/1999/xlink">
<g id="graph0" class="graph" transform="scale(1 1) rotate(0) translate(4 283.1)">
<title>G</title>
<polygon fill="white" stroke="transparent" points="-4,4 -4,-283.1 388.36,-283.1 388.36,4 -4,4"/>
<!-- board.cache_hierarchy.ruby_system.network.routers0 -->
<g id="node1" class="node">
<title>board.cache_hierarchy.ruby_system.network.routers0</title>
<path fill="#cce6fc" stroke="#000000" d="M138.68,-103.41C138.68,-103.41 168.68,-103.41 168.68,-103.41 174.68,-103.41 180.68,-109.41 180.68,-115.41 180.68,-115.41 180.68,-127.41 180.68,-127.41 180.68,-133.41 174.68,-139.41 168.68,-139.41 168.68,-139.41 138.68,-139.41 138.68,-139.41 132.68,-139.41 126.68,-133.41 126.68,-127.41 126.68,-127.41 126.68,-115.41 126.68,-115.41 126.68,-109.41 132.68,-103.41 138.68,-103.41"/>
<text text-anchor="middle" x="153.68" y="-117.71" font-family="Arial" font-size="14.00" fill="#000000">R 0</text>
</g>
<!-- board.cache_hierarchy.ruby_system.network.routers1 -->
<g id="node2" class="node">
<title>board.cache_hierarchy.ruby_system.network.routers1</title>
<path fill="#cce6fc" stroke="#000000" d="M219.79,-106.36C219.79,-106.36 249.79,-106.36 249.79,-106.36 255.79,-106.36 261.79,-112.36 261.79,-118.36 261.79,-118.36 261.79,-130.36 261.79,-130.36 261.79,-136.36 255.79,-142.36 249.79,-142.36 249.79,-142.36 219.79,-142.36 219.79,-142.36 213.79,-142.36 207.79,-136.36 207.79,-130.36 207.79,-130.36 207.79,-118.36 207.79,-118.36 207.79,-112.36 213.79,-106.36 219.79,-106.36"/>
<text text-anchor="middle" x="234.79" y="-120.66" font-family="Arial" font-size="14.00" fill="#000000">R 1</text>
</g>
<!-- board.cache_hierarchy.ruby_system.network.routers0&#45;&#45;board.cache_hierarchy.ruby_system.network.routers1 -->
<g id="edge1" class="edge">
<title>board.cache_hierarchy.ruby_system.network.routers0&#45;&#45;board.cache_hierarchy.ruby_system.network.routers1</title>
<path fill="none" stroke="#042d50" d="M180.69,-122.39C186.1,-122.59 191.88,-122.8 197.57,-123.01"/>
<polygon fill="#042d50" stroke="#042d50" points="197.5,-126.51 207.62,-123.37 197.76,-119.51 197.5,-126.51"/>
</g>
<!-- board.cache_hierarchy.ruby_system.network.routers2 -->
<g id="node3" class="node">
<title>board.cache_hierarchy.ruby_system.network.routers2</title>
<path fill="#cce6fc" stroke="#000000" d="M163.28,-80.51C163.28,-80.51 193.28,-80.51 193.28,-80.51 199.28,-80.51 205.28,-86.51 205.28,-92.51 205.28,-92.51 205.28,-104.51 205.28,-104.51 205.28,-110.51 199.28,-116.51 193.28,-116.51 193.28,-116.51 163.28,-116.51 163.28,-116.51 157.28,-116.51 151.28,-110.51 151.28,-104.51 151.28,-104.51 151.28,-92.51 151.28,-92.51 151.28,-86.51 157.28,-80.51 163.28,-80.51"/>
<text text-anchor="middle" x="178.28" y="-94.81" font-family="Arial" font-size="14.00" fill="#000000">R 2</text>
</g>
<!-- board.cache_hierarchy.ruby_system.network.routers0&#45;&#45;board.cache_hierarchy.ruby_system.network.routers2 -->
<g id="edge2" class="edge">
<title>board.cache_hierarchy.ruby_system.network.routers0&#45;&#45;board.cache_hierarchy.ruby_system.network.routers2</title>
<path fill="none" stroke="#042d50" d="M178.89,-103.38C178.91,-103.32 178.93,-103.26 178.94,-103.19"/>
<polygon fill="#042d50" stroke="#042d50" points="179.74,-113.58 178.99,-103.01 172.98,-111.74 179.74,-113.58"/>
</g>
<!-- board.cache_hierarchy.ruby_system.network.routers3 -->
<g id="node4" class="node">
<title>board.cache_hierarchy.ruby_system.network.routers3</title>
<path fill="#cce6fc" stroke="#000000" d="M136.72,-137.51C136.72,-137.51 166.72,-137.51 166.72,-137.51 172.72,-137.51 178.72,-143.51 178.72,-149.51 178.72,-149.51 178.72,-161.51 178.72,-161.51 178.72,-167.51 172.72,-173.51 166.72,-173.51 166.72,-173.51 136.72,-173.51 136.72,-173.51 130.72,-173.51 124.72,-167.51 124.72,-161.51 124.72,-161.51 124.72,-149.51 124.72,-149.51 124.72,-143.51 130.72,-137.51 136.72,-137.51"/>
<text text-anchor="middle" x="151.72" y="-151.81" font-family="Arial" font-size="14.00" fill="#000000">R 3</text>
</g>
<!-- board.cache_hierarchy.ruby_system.network.routers0&#45;&#45;board.cache_hierarchy.ruby_system.network.routers3 -->
<g id="edge3" class="edge">
<title>board.cache_hierarchy.ruby_system.network.routers0&#45;&#45;board.cache_hierarchy.ruby_system.network.routers3</title>
<path fill="none" stroke="#042d50" d="M145.9,-139.67C145.89,-139.74 145.89,-139.8 145.89,-139.86"/>
<polygon fill="#042d50" stroke="#042d50" points="142.58,-129.98 145.89,-140.05 149.58,-130.11 142.58,-129.98"/>
</g>
<!-- board.cache_hierarchy.ruby_system.network.routers4 -->
<g id="node5" class="node">
<title>board.cache_hierarchy.ruby_system.network.routers4</title>
<path fill="#cce6fc" stroke="#000000" d="M218.5,-139.88C218.5,-139.88 248.5,-139.88 248.5,-139.88 254.5,-139.88 260.5,-145.88 260.5,-151.88 260.5,-151.88 260.5,-163.88 260.5,-163.88 260.5,-169.88 254.5,-175.88 248.5,-175.88 248.5,-175.88 218.5,-175.88 218.5,-175.88 212.5,-175.88 206.5,-169.88 206.5,-163.88 206.5,-163.88 206.5,-151.88 206.5,-151.88 206.5,-145.88 212.5,-139.88 218.5,-139.88"/>
<text text-anchor="middle" x="233.5" y="-154.18" font-family="Arial" font-size="14.00" fill="#000000">R 4</text>
</g>
<!-- board.cache_hierarchy.ruby_system.network.routers0&#45;&#45;board.cache_hierarchy.ruby_system.network.routers4 -->
<g id="edge4" class="edge">
<title>board.cache_hierarchy.ruby_system.network.routers0&#45;&#45;board.cache_hierarchy.ruby_system.network.routers4</title>
<path fill="none" stroke="#042d50" d="M178.03,-139.6C184.03,-142.7 190.59,-145.79 197.03,-148.56"/>
<polygon fill="#042d50" stroke="#042d50" points="195.72,-151.81 206.3,-152.37 198.38,-145.33 195.72,-151.81"/>
</g>
<!-- board.cache_hierarchy.ruby_system.network.routers5 -->
<g id="node6" class="node">
<title>board.cache_hierarchy.ruby_system.network.routers5</title>
<path fill="#cce6fc" stroke="#000000" d="M194.09,-163.67C194.09,-163.67 224.09,-163.67 224.09,-163.67 230.09,-163.67 236.09,-169.67 236.09,-175.67 236.09,-175.67 236.09,-187.67 236.09,-187.67 236.09,-193.67 230.09,-199.67 224.09,-199.67 224.09,-199.67 194.09,-199.67 194.09,-199.67 188.09,-199.67 182.09,-193.67 182.09,-187.67 182.09,-187.67 182.09,-175.67 182.09,-175.67 182.09,-169.67 188.09,-163.67 194.09,-163.67"/>
<text text-anchor="middle" x="209.09" y="-177.97" font-family="Arial" font-size="14.00" fill="#000000">R 5</text>
</g>
<!-- board.cache_hierarchy.ruby_system.network.routers0&#45;&#45;board.cache_hierarchy.ruby_system.network.routers5 -->
<g id="edge5" class="edge">
<title>board.cache_hierarchy.ruby_system.network.routers0&#45;&#45;board.cache_hierarchy.ruby_system.network.routers5</title>
<path fill="none" stroke="#042d50" d="M162.51,-139.64C166.46,-144.84 171.33,-150.58 176.41,-156.11"/>
<polygon fill="#042d50" stroke="#042d50" points="173.99,-158.63 183.42,-163.45 179.05,-153.8 173.99,-158.63"/>
</g>
<!-- board.cache_hierarchy.ruby_system.network.routers6 -->
<g id="node7" class="node">
<title>board.cache_hierarchy.ruby_system.network.routers6</title>
<path fill="#cce6fc" stroke="#000000" d="M160.95,-160.39C160.95,-160.39 190.95,-160.39 190.95,-160.39 196.95,-160.39 202.95,-166.39 202.95,-172.39 202.95,-172.39 202.95,-184.39 202.95,-184.39 202.95,-190.39 196.95,-196.39 190.95,-196.39 190.95,-196.39 160.95,-196.39 160.95,-196.39 154.95,-196.39 148.95,-190.39 148.95,-184.39 148.95,-184.39 148.95,-172.39 148.95,-172.39 148.95,-166.39 154.95,-160.39 160.95,-160.39"/>
<text text-anchor="middle" x="175.95" y="-174.69" font-family="Arial" font-size="14.00" fill="#000000">R 6</text>
</g>
<!-- board.cache_hierarchy.ruby_system.network.routers0&#45;&#45;board.cache_hierarchy.ruby_system.network.routers6 -->
<g id="edge6" class="edge">
<title>board.cache_hierarchy.ruby_system.network.routers0&#45;&#45;board.cache_hierarchy.ruby_system.network.routers6</title>
<path fill="none" stroke="#042d50" d="M154.18,-139.51C155.19,-143.1 156.47,-146.95 157.91,-150.77"/>
<polygon fill="#042d50" stroke="#042d50" points="154.71,-152.19 161.79,-160.07 161.17,-149.5 154.71,-152.19"/>
</g>
<!-- board.cache_hierarchy.ruby_system.network.routers7 -->
<g id="node8" class="node">
<title>board.cache_hierarchy.ruby_system.network.routers7</title>
<path fill="#cce6fc" stroke="#000000" d="M196.85,-81.82C196.85,-81.82 226.85,-81.82 226.85,-81.82 232.85,-81.82 238.85,-87.82 238.85,-93.82 238.85,-93.82 238.85,-105.82 238.85,-105.82 238.85,-111.82 232.85,-117.82 226.85,-117.82 226.85,-117.82 196.85,-117.82 196.85,-117.82 190.85,-117.82 184.85,-111.82 184.85,-105.82 184.85,-105.82 184.85,-93.82 184.85,-93.82 184.85,-87.82 190.85,-81.82 196.85,-81.82"/>
<text text-anchor="middle" x="211.85" y="-96.12" font-family="Arial" font-size="14.00" fill="#000000">R 7</text>
</g>
<!-- board.cache_hierarchy.ruby_system.network.routers0&#45;&#45;board.cache_hierarchy.ruby_system.network.routers7 -->
<g id="edge7" class="edge">
<title>board.cache_hierarchy.ruby_system.network.routers0&#45;&#45;board.cache_hierarchy.ruby_system.network.routers7</title>
<path fill="none" stroke="#042d50" d="M181.01,-118.4C181.17,-118.35 181.33,-118.29 181.48,-118.24"/>
<polygon fill="#042d50" stroke="#042d50" points="176.5,-123.73 184.75,-117.07 174.16,-117.13 176.5,-123.73"/>
</g>
<!-- board.cache_hierarchy.ruby_system.network.routers1&#45;&#45;board.cache_hierarchy.ruby_system.network.routers2 -->
<g id="edge8" class="edge">
<title>board.cache_hierarchy.ruby_system.network.routers1&#45;&#45;board.cache_hierarchy.ruby_system.network.routers2</title>
<path fill="none" stroke="#042d50" d="M207.53,-111.89C207.44,-111.85 207.36,-111.81 207.27,-111.78"/>
<polygon fill="#042d50" stroke="#042d50" points="216.04,-111.94 205.49,-110.96 213.13,-118.3 216.04,-111.94"/>
</g>
<!-- board.cache_hierarchy.ruby_system.network.routers1&#45;&#45;board.cache_hierarchy.ruby_system.network.routers3 -->
<g id="edge9" class="edge">
<title>board.cache_hierarchy.ruby_system.network.routers1&#45;&#45;board.cache_hierarchy.ruby_system.network.routers3</title>
<path fill="none" stroke="#042d50" d="M207.68,-127.86C201.44,-129.78 194.71,-132.13 188.15,-134.66"/>
<polygon fill="#042d50" stroke="#042d50" points="186.7,-131.47 178.74,-138.46 189.32,-137.96 186.7,-131.47"/>
</g>
<!-- board.cache_hierarchy.ruby_system.network.routers1&#45;&#45;board.cache_hierarchy.ruby_system.network.routers4 -->
<g id="edge10" class="edge">
<title>board.cache_hierarchy.ruby_system.network.routers1&#45;&#45;board.cache_hierarchy.ruby_system.network.routers4</title>
<path fill="none" stroke="#042d50" d="M227.36,-142.43C227.36,-142.49 227.36,-142.55 227.36,-142.62"/>
<polygon fill="#042d50" stroke="#042d50" points="223.85,-132.8 227.36,-142.8 230.85,-132.79 223.85,-132.8"/>
</g>
<!-- board.cache_hierarchy.ruby_system.network.routers1&#45;&#45;board.cache_hierarchy.ruby_system.network.routers5 -->
<g id="edge11" class="edge">
<title>board.cache_hierarchy.ruby_system.network.routers1&#45;&#45;board.cache_hierarchy.ruby_system.network.routers5</title>
<path fill="none" stroke="#042d50" d="M219.57,-142.39C217.66,-146.08 215.82,-150.04 214.17,-153.98"/>
<polygon fill="#042d50" stroke="#042d50" points="210.81,-152.97 210.54,-163.56 217.36,-155.44 210.81,-152.97"/>
</g>
<!-- board.cache_hierarchy.ruby_system.network.routers1&#45;&#45;board.cache_hierarchy.ruby_system.network.routers6 -->
<g id="edge12" class="edge">
<title>board.cache_hierarchy.ruby_system.network.routers1&#45;&#45;board.cache_hierarchy.ruby_system.network.routers6</title>
<path fill="none" stroke="#042d50" d="M207.76,-140.25C203.04,-144.28 198.24,-148.69 193.84,-153.04"/>
<polygon fill="#042d50" stroke="#042d50" points="191.31,-150.62 186.88,-160.25 196.35,-155.48 191.31,-150.62"/>
</g>
<!-- board.cache_hierarchy.ruby_system.network.routers1&#45;&#45;board.cache_hierarchy.ruby_system.network.routers7 -->
<g id="edge13" class="edge">
<title>board.cache_hierarchy.ruby_system.network.routers1&#45;&#45;board.cache_hierarchy.ruby_system.network.routers7</title>
<path fill="none" stroke="#042d50" d="M227.16,-106.35C227.12,-106.31 227.08,-106.26 227.03,-106.22"/>
<polygon fill="#042d50" stroke="#042d50" points="236.48,-110.63 226.9,-106.09 231.55,-115.61 236.48,-110.63"/>
</g>
<!-- board.cache_hierarchy.ruby_system.network.routers2&#45;&#45;board.cache_hierarchy.ruby_system.network.routers0 -->
<g id="edge14" class="edge">
<title>board.cache_hierarchy.ruby_system.network.routers2&#45;&#45;board.cache_hierarchy.ruby_system.network.routers0</title>
<path fill="none" stroke="#042d50" d="M153.06,-116.54C153.04,-116.6 153.02,-116.67 153.01,-116.73"/>
<polygon fill="#042d50" stroke="#042d50" points="152.21,-106.34 152.96,-116.91 158.97,-108.18 152.21,-106.34"/>
</g>
<!-- board.cache_hierarchy.ruby_system.network.routers2&#45;&#45;board.cache_hierarchy.ruby_system.network.routers3 -->
<g id="edge15" class="edge">
<title>board.cache_hierarchy.ruby_system.network.routers2&#45;&#45;board.cache_hierarchy.ruby_system.network.routers3</title>
<path fill="none" stroke="#042d50" d="M169.87,-116.55C168.13,-120.29 166.26,-124.31 164.4,-128.3"/>
<polygon fill="#042d50" stroke="#042d50" points="161.21,-126.86 160.16,-137.4 167.56,-129.81 161.21,-126.86"/>
</g>
<!-- board.cache_hierarchy.ruby_system.network.routers2&#45;&#45;board.cache_hierarchy.ruby_system.network.routers4 -->
<g id="edge16" class="edge">
<title>board.cache_hierarchy.ruby_system.network.routers2&#45;&#45;board.cache_hierarchy.ruby_system.network.routers4</title>
<path fill="none" stroke="#042d50" d="M187.09,-116.56C190.86,-121.47 195.46,-126.87 200.3,-132.1"/>
<polygon fill="#042d50" stroke="#042d50" points="198.03,-134.79 207.48,-139.58 203.08,-129.94 198.03,-134.79"/>
</g>
<!-- board.cache_hierarchy.ruby_system.network.routers2&#45;&#45;board.cache_hierarchy.ruby_system.network.routers5 -->
<g id="edge17" class="edge">
<title>board.cache_hierarchy.ruby_system.network.routers2&#45;&#45;board.cache_hierarchy.ruby_system.network.routers5</title>
<path fill="none" stroke="#042d50" d="M179.2,-116.85C181.98,-127.8 186.85,-141.9 191.96,-154.16"/>
<polygon fill="#042d50" stroke="#042d50" points="188.84,-155.76 196.08,-163.5 195.25,-152.94 188.84,-155.76"/>
</g>
<!-- board.cache_hierarchy.ruby_system.network.routers2&#45;&#45;board.cache_hierarchy.ruby_system.network.routers6 -->
<g id="edge18" class="edge">
<title>board.cache_hierarchy.ruby_system.network.routers2&#45;&#45;board.cache_hierarchy.ruby_system.network.routers6</title>
<path fill="none" stroke="#042d50" d="M171.94,-116.87C170.67,-126.76 170.09,-139.18 170.29,-150.26"/>
<polygon fill="#042d50" stroke="#042d50" points="166.8,-150.51 170.73,-160.35 173.79,-150.21 166.8,-150.51"/>
</g>
<!-- board.cache_hierarchy.ruby_system.network.routers2&#45;&#45;board.cache_hierarchy.ruby_system.network.routers7 -->
<g id="edge19" class="edge">
<title>board.cache_hierarchy.ruby_system.network.routers2&#45;&#45;board.cache_hierarchy.ruby_system.network.routers7</title>
<path fill="none" stroke="#042d50" d="M205.49,-104.94C205.55,-104.92 205.6,-104.91 205.66,-104.89"/>
<polygon fill="#042d50" stroke="#042d50" points="197.13,-110.89 205.83,-104.84 195.26,-104.14 197.13,-110.89"/>
</g>
<!-- board.cache_hierarchy.ruby_system.network.routers3&#45;&#45;board.cache_hierarchy.ruby_system.network.routers0 -->
<g id="edge20" class="edge">
<title>board.cache_hierarchy.ruby_system.network.routers3&#45;&#45;board.cache_hierarchy.ruby_system.network.routers0</title>
<path fill="none" stroke="#042d50" d="M159.5,-137.25C159.51,-137.19 159.51,-137.12 159.51,-137.06"/>
<polygon fill="#042d50" stroke="#042d50" points="162.82,-146.94 159.51,-136.87 155.82,-146.81 162.82,-146.94"/>
</g>
<!-- board.cache_hierarchy.ruby_system.network.routers3&#45;&#45;board.cache_hierarchy.ruby_system.network.routers1 -->
<g id="edge21" class="edge">
<title>board.cache_hierarchy.ruby_system.network.routers3&#45;&#45;board.cache_hierarchy.ruby_system.network.routers1</title>
<path fill="none" stroke="#042d50" d="M178.84,-152.02C185.08,-150.09 191.81,-147.74 198.37,-145.22"/>
<polygon fill="#042d50" stroke="#042d50" points="199.82,-148.41 207.78,-141.42 197.19,-141.92 199.82,-148.41"/>
</g>
<!-- board.cache_hierarchy.ruby_system.network.routers3&#45;&#45;board.cache_hierarchy.ruby_system.network.routers4 -->
<g id="edge22" class="edge">
<title>board.cache_hierarchy.ruby_system.network.routers3&#45;&#45;board.cache_hierarchy.ruby_system.network.routers4</title>
<path fill="none" stroke="#042d50" d="M178.95,-156.3C184.47,-156.46 190.36,-156.63 196.16,-156.8"/>
<polygon fill="#042d50" stroke="#042d50" points="196.29,-160.31 206.39,-157.1 196.49,-153.31 196.29,-160.31"/>
</g>
<!-- board.cache_hierarchy.ruby_system.network.routers3&#45;&#45;board.cache_hierarchy.ruby_system.network.routers5 -->
<g id="edge23" class="edge">
<title>board.cache_hierarchy.ruby_system.network.routers3&#45;&#45;board.cache_hierarchy.ruby_system.network.routers5</title>
<path fill="none" stroke="#042d50" d="M175.26,-173.64C175.4,-173.71 175.54,-173.78 175.68,-173.84"/>
<polygon fill="#042d50" stroke="#042d50" points="171.45,-175.78 182,-176.66 174.3,-169.39 171.45,-175.78"/>
</g>
<!-- board.cache_hierarchy.ruby_system.network.routers3&#45;&#45;board.cache_hierarchy.ruby_system.network.routers6 -->
<g id="edge24" class="edge">
<title>board.cache_hierarchy.ruby_system.network.routers3&#45;&#45;board.cache_hierarchy.ruby_system.network.routers6</title>
<path fill="none" stroke="#042d50" d="M161.23,-173.67C161.28,-173.71 161.32,-173.74 161.37,-173.78"/>
<polygon fill="#042d50" stroke="#042d50" points="151.56,-170.21 161.5,-173.89 156.03,-164.82 151.56,-170.21"/>
</g>
<!-- board.cache_hierarchy.ruby_system.network.routers3&#45;&#45;board.cache_hierarchy.ruby_system.network.routers7 -->
<g id="edge25" class="edge">
<title>board.cache_hierarchy.ruby_system.network.routers3&#45;&#45;board.cache_hierarchy.ruby_system.network.routers7</title>
<path fill="none" stroke="#042d50" d="M178.92,-139.28C183.98,-134.93 189.14,-130.14 193.84,-125.43"/>
<polygon fill="#042d50" stroke="#042d50" points="196.4,-127.83 200.78,-118.18 191.34,-122.99 196.4,-127.83"/>
</g>
<!-- board.cache_hierarchy.ruby_system.network.routers4&#45;&#45;board.cache_hierarchy.ruby_system.network.routers0 -->
<g id="edge26" class="edge">
<title>board.cache_hierarchy.ruby_system.network.routers4&#45;&#45;board.cache_hierarchy.ruby_system.network.routers0</title>
<path fill="none" stroke="#042d50" d="M209.14,-139.69C203.14,-136.59 196.58,-133.51 190.14,-130.73"/>
<polygon fill="#042d50" stroke="#042d50" points="191.45,-127.48 180.87,-126.92 188.79,-133.96 191.45,-127.48"/>
</g>
<!-- board.cache_hierarchy.ruby_system.network.routers4&#45;&#45;board.cache_hierarchy.ruby_system.network.routers1 -->
<g id="edge27" class="edge">
<title>board.cache_hierarchy.ruby_system.network.routers4&#45;&#45;board.cache_hierarchy.ruby_system.network.routers1</title>
<path fill="none" stroke="#042d50" d="M240.92,-139.81C240.92,-139.75 240.92,-139.69 240.92,-139.63"/>
<polygon fill="#042d50" stroke="#042d50" points="244.44,-149.44 240.92,-139.45 237.44,-149.45 244.44,-149.44"/>
</g>
<!-- board.cache_hierarchy.ruby_system.network.routers4&#45;&#45;board.cache_hierarchy.ruby_system.network.routers2 -->
<g id="edge28" class="edge">
<title>board.cache_hierarchy.ruby_system.network.routers4&#45;&#45;board.cache_hierarchy.ruby_system.network.routers2</title>
<path fill="none" stroke="#042d50" d="M224.69,-139.84C220.91,-134.93 216.31,-129.53 211.47,-124.29"/>
<polygon fill="#042d50" stroke="#042d50" points="213.74,-121.61 204.29,-116.82 208.69,-126.45 213.74,-121.61"/>
</g>
<!-- board.cache_hierarchy.ruby_system.network.routers4&#45;&#45;board.cache_hierarchy.ruby_system.network.routers5 -->
<g id="edge29" class="edge">
<title>board.cache_hierarchy.ruby_system.network.routers4&#45;&#45;board.cache_hierarchy.ruby_system.network.routers5</title>
<path fill="none" stroke="#042d50" d="M215,-175.91C214.94,-175.96 214.89,-176.02 214.84,-176.07"/>
<polygon fill="#042d50" stroke="#042d50" points="219.4,-166.73 214.68,-176.22 224.29,-171.75 219.4,-166.73"/>
</g>
<!-- board.cache_hierarchy.ruby_system.network.routers4&#45;&#45;board.cache_hierarchy.ruby_system.network.routers6 -->
<g id="edge30" class="edge">
<title>board.cache_hierarchy.ruby_system.network.routers4&#45;&#45;board.cache_hierarchy.ruby_system.network.routers6</title>
<path fill="none" stroke="#042d50" d="M206.17,-160.51C206.05,-160.55 205.93,-160.59 205.8,-160.63"/>
<polygon fill="#042d50" stroke="#042d50" points="211.57,-154.97 203.23,-161.5 213.83,-161.59 211.57,-154.97"/>
</g>
<!-- board.cache_hierarchy.ruby_system.network.routers4&#45;&#45;board.cache_hierarchy.ruby_system.network.routers7 -->
<g id="edge31" class="edge">
<title>board.cache_hierarchy.ruby_system.network.routers4&#45;&#45;board.cache_hierarchy.ruby_system.network.routers7</title>
<path fill="none" stroke="#042d50" d="M233.21,-139.57C232.19,-135.74 230.87,-131.61 229.38,-127.53"/>
<polygon fill="#042d50" stroke="#042d50" points="232.61,-126.18 225.64,-118.21 226.12,-128.79 232.61,-126.18"/>
</g>
<!-- board.cache_hierarchy.ruby_system.network.routers5&#45;&#45;board.cache_hierarchy.ruby_system.network.routers0 -->
<g id="edge32" class="edge">
<title>board.cache_hierarchy.ruby_system.network.routers5&#45;&#45;board.cache_hierarchy.ruby_system.network.routers0</title>
<path fill="none" stroke="#042d50" d="M200.26,-163.44C196.3,-158.24 191.44,-152.5 186.35,-146.97"/>
<polygon fill="#042d50" stroke="#042d50" points="188.78,-144.44 179.34,-139.63 183.71,-149.28 188.78,-144.44"/>
</g>
<!-- board.cache_hierarchy.ruby_system.network.routers5&#45;&#45;board.cache_hierarchy.ruby_system.network.routers1 -->
<g id="edge33" class="edge">
<title>board.cache_hierarchy.ruby_system.network.routers5&#45;&#45;board.cache_hierarchy.ruby_system.network.routers1</title>
<path fill="none" stroke="#042d50" d="M224.31,-163.65C226.22,-159.95 228.07,-155.99 229.72,-152.05"/>
<polygon fill="#042d50" stroke="#042d50" points="233.08,-153.07 233.34,-142.48 226.53,-150.59 233.08,-153.07"/>
</g>
<!-- board.cache_hierarchy.ruby_system.network.routers5&#45;&#45;board.cache_hierarchy.ruby_system.network.routers2 -->
<g id="edge34" class="edge">
<title>board.cache_hierarchy.ruby_system.network.routers5&#45;&#45;board.cache_hierarchy.ruby_system.network.routers2</title>
<path fill="none" stroke="#042d50" d="M208.16,-163.33C205.39,-152.38 200.52,-138.28 195.4,-126.03"/>
<polygon fill="#042d50" stroke="#042d50" points="198.52,-124.42 191.29,-116.69 192.12,-127.25 198.52,-124.42"/>
</g>
<!-- board.cache_hierarchy.ruby_system.network.routers5&#45;&#45;board.cache_hierarchy.ruby_system.network.routers3 -->
<g id="edge35" class="edge">
<title>board.cache_hierarchy.ruby_system.network.routers5&#45;&#45;board.cache_hierarchy.ruby_system.network.routers3</title>
<path fill="none" stroke="#042d50" d="M185.55,-163.54C185.41,-163.47 185.27,-163.41 185.13,-163.34"/>
<polygon fill="#042d50" stroke="#042d50" points="189.37,-161.4 178.81,-160.52 186.52,-167.79 189.37,-161.4"/>
</g>
<!-- board.cache_hierarchy.ruby_system.network.routers5&#45;&#45;board.cache_hierarchy.ruby_system.network.routers6 -->
<g id="edge36" class="edge">
<title>board.cache_hierarchy.ruby_system.network.routers5&#45;&#45;board.cache_hierarchy.ruby_system.network.routers6</title>
<path fill="none" stroke="#042d50" d="M182.02,-178.99C181.97,-178.99 181.91,-178.98 181.86,-178.98"/>
<polygon fill="#042d50" stroke="#042d50" points="191.99,-176.47 181.69,-178.96 191.3,-183.43 191.99,-176.47"/>
</g>
<!-- board.cache_hierarchy.ruby_system.network.routers5&#45;&#45;board.cache_hierarchy.ruby_system.network.routers7 -->
<g id="edge37" class="edge">
<title>board.cache_hierarchy.ruby_system.network.routers5&#45;&#45;board.cache_hierarchy.ruby_system.network.routers7</title>
<path fill="none" stroke="#042d50" d="M215.48,-163.29C216.85,-152.92 217.52,-139.75 217.35,-128.1"/>
<polygon fill="#042d50" stroke="#042d50" points="220.84,-127.8 216.94,-117.95 213.84,-128.08 220.84,-127.8"/>
</g>
<!-- board.cache_hierarchy.ruby_system.network.routers6&#45;&#45;board.cache_hierarchy.ruby_system.network.routers0 -->
<g id="edge38" class="edge">
<title>board.cache_hierarchy.ruby_system.network.routers6&#45;&#45;board.cache_hierarchy.ruby_system.network.routers0</title>
<path fill="none" stroke="#042d50" d="M175.45,-160.29C174.44,-156.7 173.15,-152.86 171.71,-149.03"/>
<polygon fill="#042d50" stroke="#042d50" points="174.91,-147.62 167.84,-139.73 168.45,-150.31 174.91,-147.62"/>
</g>
<!-- board.cache_hierarchy.ruby_system.network.routers6&#45;&#45;board.cache_hierarchy.ruby_system.network.routers1 -->
<g id="edge39" class="edge">
<title>board.cache_hierarchy.ruby_system.network.routers6&#45;&#45;board.cache_hierarchy.ruby_system.network.routers1</title>
<path fill="none" stroke="#042d50" d="M202.98,-162.51C207.7,-158.48 212.5,-154.07 216.9,-149.71"/>
<polygon fill="#042d50" stroke="#042d50" points="219.43,-152.13 223.86,-142.51 214.39,-147.27 219.43,-152.13"/>
</g>
<!-- board.cache_hierarchy.ruby_system.network.routers6&#45;&#45;board.cache_hierarchy.ruby_system.network.routers2 -->
<g id="edge40" class="edge">
<title>board.cache_hierarchy.ruby_system.network.routers6&#45;&#45;board.cache_hierarchy.ruby_system.network.routers2</title>
<path fill="none" stroke="#042d50" d="M182.28,-160.04C183.55,-150.14 184.13,-137.73 183.93,-126.65"/>
<polygon fill="#042d50" stroke="#042d50" points="187.42,-126.39 183.49,-116.56 180.43,-126.7 187.42,-126.39"/>
</g>
<!-- board.cache_hierarchy.ruby_system.network.routers6&#45;&#45;board.cache_hierarchy.ruby_system.network.routers3 -->
<g id="edge41" class="edge">
<title>board.cache_hierarchy.ruby_system.network.routers6&#45;&#45;board.cache_hierarchy.ruby_system.network.routers3</title>
<path fill="none" stroke="#042d50" d="M166.44,-160.24C166.39,-160.2 166.35,-160.16 166.3,-160.13"/>
<polygon fill="#042d50" stroke="#042d50" points="176.11,-163.7 166.17,-160.02 171.64,-169.09 176.11,-163.7"/>
</g>
<!-- board.cache_hierarchy.ruby_system.network.routers6&#45;&#45;board.cache_hierarchy.ruby_system.network.routers4 -->
<g id="edge42" class="edge">
<title>board.cache_hierarchy.ruby_system.network.routers6&#45;&#45;board.cache_hierarchy.ruby_system.network.routers4</title>
<path fill="none" stroke="#042d50" d="M203.27,-175.77C203.39,-175.73 203.51,-175.69 203.64,-175.65"/>
<polygon fill="#042d50" stroke="#042d50" points="197.87,-181.31 206.21,-174.77 195.61,-174.68 197.87,-181.31"/>
</g>
<!-- board.cache_hierarchy.ruby_system.network.routers6&#45;&#45;board.cache_hierarchy.ruby_system.network.routers7 -->
<g id="edge43" class="edge">
<title>board.cache_hierarchy.ruby_system.network.routers6&#45;&#45;board.cache_hierarchy.ruby_system.network.routers7</title>
<path fill="none" stroke="#042d50" d="M184.27,-160.17C188.76,-150.35 194.39,-138.04 199.38,-127.1"/>
<polygon fill="#042d50" stroke="#042d50" points="202.6,-128.49 203.57,-117.94 196.23,-125.58 202.6,-128.49"/>
</g>
<!-- board.cache_hierarchy.ruby_system.network.routers7&#45;&#45;board.cache_hierarchy.ruby_system.network.routers0 -->
<g id="edge44" class="edge">
<title>board.cache_hierarchy.ruby_system.network.routers7&#45;&#45;board.cache_hierarchy.ruby_system.network.routers0</title>
<path fill="none" stroke="#042d50" d="M184.52,-102.83C184.36,-102.88 184.2,-102.93 184.05,-102.98"/>
<polygon fill="#042d50" stroke="#042d50" points="189.03,-97.5 180.78,-104.15 191.37,-104.09 189.03,-97.5"/>
</g>
<!-- board.cache_hierarchy.ruby_system.network.routers7&#45;&#45;board.cache_hierarchy.ruby_system.network.routers1 -->
<g id="edge45" class="edge">
<title>board.cache_hierarchy.ruby_system.network.routers7&#45;&#45;board.cache_hierarchy.ruby_system.network.routers1</title>
<path fill="none" stroke="#042d50" d="M219.49,-117.83C219.53,-117.87 219.57,-117.92 219.62,-117.96"/>
<polygon fill="#042d50" stroke="#042d50" points="210.17,-113.55 219.75,-118.09 215.09,-108.57 210.17,-113.55"/>
</g>
<!-- board.cache_hierarchy.ruby_system.network.routers7&#45;&#45;board.cache_hierarchy.ruby_system.network.routers2 -->
<g id="edge46" class="edge">
<title>board.cache_hierarchy.ruby_system.network.routers7&#45;&#45;board.cache_hierarchy.ruby_system.network.routers2</title>
<path fill="none" stroke="#042d50" d="M184.64,-93.39C184.58,-93.41 184.53,-93.42 184.47,-93.44"/>
<polygon fill="#042d50" stroke="#042d50" points="193,-87.44 184.3,-93.49 194.87,-94.19 193,-87.44"/>
</g>
<!-- board.cache_hierarchy.ruby_system.network.routers7&#45;&#45;board.cache_hierarchy.ruby_system.network.routers3 -->
<g id="edge47" class="edge">
<title>board.cache_hierarchy.ruby_system.network.routers7&#45;&#45;board.cache_hierarchy.ruby_system.network.routers3</title>
<path fill="none" stroke="#042d50" d="M184.66,-116.05C179.6,-120.4 174.44,-125.19 169.74,-129.9"/>
<polygon fill="#042d50" stroke="#042d50" points="167.18,-127.5 162.8,-137.15 172.24,-132.34 167.18,-127.5"/>
</g>
<!-- board.cache_hierarchy.ruby_system.network.routers7&#45;&#45;board.cache_hierarchy.ruby_system.network.routers4 -->
<g id="edge48" class="edge">
<title>board.cache_hierarchy.ruby_system.network.routers7&#45;&#45;board.cache_hierarchy.ruby_system.network.routers4</title>
<path fill="none" stroke="#042d50" d="M212.14,-118.13C213.16,-121.96 214.48,-126.09 215.97,-130.17"/>
<polygon fill="#042d50" stroke="#042d50" points="212.74,-131.52 219.71,-139.49 219.23,-128.91 212.74,-131.52"/>
</g>
<!-- board.cache_hierarchy.ruby_system.network.routers7&#45;&#45;board.cache_hierarchy.ruby_system.network.routers5 -->
<g id="edge49" class="edge">
<title>board.cache_hierarchy.ruby_system.network.routers7&#45;&#45;board.cache_hierarchy.ruby_system.network.routers5</title>
<path fill="none" stroke="#042d50" d="M205.47,-118.2C204.09,-128.56 203.42,-141.73 203.6,-153.39"/>
<polygon fill="#042d50" stroke="#042d50" points="200.11,-153.69 204,-163.54 207.1,-153.41 200.11,-153.69"/>
</g>
<!-- board.cache_hierarchy.ruby_system.l1_controllers0 -->
<g id="node9" class="node">
<title>board.cache_hierarchy.ruby_system.l1_controllers0</title>
<path fill="#e5bcd0" stroke="#000000" d="M36.8,-67.18C36.8,-67.18 116.8,-67.18 116.8,-67.18 122.8,-67.18 128.8,-73.18 128.8,-79.18 128.8,-79.18 128.8,-91.18 128.8,-91.18 128.8,-97.18 122.8,-103.18 116.8,-103.18 116.8,-103.18 36.8,-103.18 36.8,-103.18 30.8,-103.18 24.8,-97.18 24.8,-91.18 24.8,-91.18 24.8,-79.18 24.8,-79.18 24.8,-73.18 30.8,-67.18 36.8,-67.18"/>
<text text-anchor="middle" x="76.8" y="-81.48" font-family="Arial" font-size="14.00" fill="#000000">l1_controllers0</text>
</g>
<!-- board.cache_hierarchy.ruby_system.l1_controllers0&#45;&#45;board.cache_hierarchy.ruby_system.network.routers0 -->
<g id="edge50" class="edge">
<title>board.cache_hierarchy.ruby_system.l1_controllers0&#45;&#45;board.cache_hierarchy.ruby_system.network.routers0</title>
<path fill="none" stroke="#381526" d="M124.31,-107.57C124.4,-107.61 124.48,-107.65 124.57,-107.69"/>
<polygon fill="#381526" stroke="#381526" points="125.78,-104.39 115.24,-103.3 122.79,-110.73 125.78,-104.39"/>
<polygon fill="#381526" stroke="#381526" points="115.82,-107.44 126.36,-108.53 118.8,-101.11 115.82,-107.44"/>
</g>
<!-- board.cache_hierarchy.ruby_system.l1_controllers1 -->
<g id="node10" class="node">
<title>board.cache_hierarchy.ruby_system.l1_controllers1</title>
<path fill="#e5bcd0" stroke="#000000" d="M274.21,-76.14C274.21,-76.14 354.21,-76.14 354.21,-76.14 360.21,-76.14 366.21,-82.14 366.21,-88.14 366.21,-88.14 366.21,-100.14 366.21,-100.14 366.21,-106.14 360.21,-112.14 354.21,-112.14 354.21,-112.14 274.21,-112.14 274.21,-112.14 268.21,-112.14 262.21,-106.14 262.21,-100.14 262.21,-100.14 262.21,-88.14 262.21,-88.14 262.21,-82.14 268.21,-76.14 274.21,-76.14"/>
<text text-anchor="middle" x="314.21" y="-90.44" font-family="Arial" font-size="14.00" fill="#000000">l1_controllers1</text>
</g>
<!-- board.cache_hierarchy.ruby_system.l1_controllers1&#45;&#45;board.cache_hierarchy.ruby_system.network.routers1 -->
<g id="edge51" class="edge">
<title>board.cache_hierarchy.ruby_system.l1_controllers1&#45;&#45;board.cache_hierarchy.ruby_system.network.routers1</title>
<path fill="none" stroke="#381526" d="M262.23,-113.92C262.18,-113.94 262.14,-113.96 262.09,-113.97"/>
<polygon fill="#381526" stroke="#381526" points="258.54,-119.07 266.64,-112.24 256.05,-112.53 258.54,-119.07"/>
<polygon fill="#381526" stroke="#381526" points="270.04,-107.2 261.94,-114.03 272.54,-113.74 270.04,-107.2"/>
</g>
<!-- board.cache_hierarchy.ruby_system.l2_controllers -->
<g id="node11" class="node">
<title>board.cache_hierarchy.ruby_system.l2_controllers</title>
<path fill="#e5bcd0" stroke="#000000" d="M113.26,-0.5C113.26,-0.5 186.26,-0.5 186.26,-0.5 192.26,-0.5 198.26,-6.5 198.26,-12.5 198.26,-12.5 198.26,-24.5 198.26,-24.5 198.26,-30.5 192.26,-36.5 186.26,-36.5 186.26,-36.5 113.26,-36.5 113.26,-36.5 107.26,-36.5 101.26,-30.5 101.26,-24.5 101.26,-24.5 101.26,-12.5 101.26,-12.5 101.26,-6.5 107.26,-0.5 113.26,-0.5"/>
<text text-anchor="middle" x="149.76" y="-14.8" font-family="Arial" font-size="14.00" fill="#000000">l2_controllers</text>
</g>
<!-- board.cache_hierarchy.ruby_system.l2_controllers&#45;&#45;board.cache_hierarchy.ruby_system.network.routers2 -->
<g id="edge52" class="edge">
<title>board.cache_hierarchy.ruby_system.l2_controllers&#45;&#45;board.cache_hierarchy.ruby_system.network.routers2</title>
<path fill="none" stroke="#381526" d="M159.61,-46.15C162.46,-54.12 165.56,-62.83 168.4,-70.81"/>
<polygon fill="#381526" stroke="#381526" points="162.89,-44.9 156.23,-36.66 156.29,-47.25 162.89,-44.9"/>
<polygon fill="#381526" stroke="#381526" points="165.18,-72.18 171.83,-80.43 171.77,-69.83 165.18,-72.18"/>
</g>
<!-- board.cache_hierarchy.ruby_system.directory_controllers0 -->
<g id="node12" class="node">
<title>board.cache_hierarchy.ruby_system.directory_controllers0</title>
<path fill="#e5bcd0" stroke="#000000" d="M12,-167.93C12,-167.93 134,-167.93 134,-167.93 140,-167.93 146,-173.93 146,-179.93 146,-179.93 146,-191.93 146,-191.93 146,-197.93 140,-203.93 134,-203.93 134,-203.93 12,-203.93 12,-203.93 6,-203.93 0,-197.93 0,-191.93 0,-191.93 0,-179.93 0,-179.93 0,-173.93 6,-167.93 12,-167.93"/>
<text text-anchor="middle" x="73" y="-182.23" font-family="Arial" font-size="14.00" fill="#000000">directory_controllers0</text>
</g>
<!-- board.cache_hierarchy.ruby_system.directory_controllers0&#45;&#45;board.cache_hierarchy.ruby_system.network.routers3 -->
<g id="edge53" class="edge">
<title>board.cache_hierarchy.ruby_system.directory_controllers0&#45;&#45;board.cache_hierarchy.ruby_system.network.routers3</title>
<path fill="none" stroke="#381526" d="M124.12,-166.18C124.17,-166.16 124.22,-166.14 124.27,-166.12"/>
<polygon fill="#381526" stroke="#381526" points="127.77,-161.02 119.7,-167.88 130.29,-167.55 127.77,-161.02"/>
<polygon fill="#381526" stroke="#381526" points="116.35,-172.94 124.41,-166.07 113.82,-166.41 116.35,-172.94"/>
</g>
<!-- board.cache_hierarchy.ruby_system.directory_controllers1 -->
<g id="node13" class="node">
<title>board.cache_hierarchy.ruby_system.directory_controllers1</title>
<path fill="#e5bcd0" stroke="#000000" d="M250.36,-174.19C250.36,-174.19 372.36,-174.19 372.36,-174.19 378.36,-174.19 384.36,-180.19 384.36,-186.19 384.36,-186.19 384.36,-198.19 384.36,-198.19 384.36,-204.19 378.36,-210.19 372.36,-210.19 372.36,-210.19 250.36,-210.19 250.36,-210.19 244.36,-210.19 238.36,-204.19 238.36,-198.19 238.36,-198.19 238.36,-186.19 238.36,-186.19 238.36,-180.19 244.36,-174.19 250.36,-174.19"/>
<text text-anchor="middle" x="311.36" y="-188.49" font-family="Arial" font-size="14.00" fill="#000000">directory_controllers1</text>
</g>
<!-- board.cache_hierarchy.ruby_system.directory_controllers1&#45;&#45;board.cache_hierarchy.ruby_system.network.routers4 -->
<g id="edge54" class="edge">
<title>board.cache_hierarchy.ruby_system.directory_controllers1&#45;&#45;board.cache_hierarchy.ruby_system.network.routers4</title>
<path fill="none" stroke="#381526" d="M260.96,-169.98C260.91,-169.96 260.86,-169.94 260.81,-169.92"/>
<polygon fill="#381526" stroke="#381526" points="259.58,-173.2 270.15,-174.03 262.41,-166.8 259.58,-173.2"/>
<polygon fill="#381526" stroke="#381526" points="271.23,-170.69 260.67,-169.85 268.41,-177.09 271.23,-170.69"/>
</g>
<!-- board.cache_hierarchy.ruby_system.dma_controllers0 -->
<g id="node14" class="node">
<title>board.cache_hierarchy.ruby_system.dma_controllers0</title>
<path fill="#e5bcd0" stroke="#000000" d="M190.6,-242.6C190.6,-242.6 287.6,-242.6 287.6,-242.6 293.6,-242.6 299.6,-248.6 299.6,-254.6 299.6,-254.6 299.6,-266.6 299.6,-266.6 299.6,-272.6 293.6,-278.6 287.6,-278.6 287.6,-278.6 190.6,-278.6 190.6,-278.6 184.6,-278.6 178.6,-272.6 178.6,-266.6 178.6,-266.6 178.6,-254.6 178.6,-254.6 178.6,-248.6 184.6,-242.6 190.6,-242.6"/>
<text text-anchor="middle" x="239.1" y="-256.9" font-family="Arial" font-size="14.00" fill="#000000">dma_controllers0</text>
</g>
<!-- board.cache_hierarchy.ruby_system.dma_controllers0&#45;&#45;board.cache_hierarchy.ruby_system.network.routers5 -->
<g id="edge55" class="edge">
<title>board.cache_hierarchy.ruby_system.dma_controllers0&#45;&#45;board.cache_hierarchy.ruby_system.network.routers5</title>
<path fill="none" stroke="#381526" d="M228.51,-232.75C225.63,-225.16 222.5,-216.95 219.62,-209.37"/>
<polygon fill="#381526" stroke="#381526" points="225.31,-234.19 232.14,-242.3 231.86,-231.71 225.31,-234.19"/>
<polygon fill="#381526" stroke="#381526" points="222.84,-207.98 216.01,-199.88 216.3,-210.47 222.84,-207.98"/>
</g>
<!-- board.cache_hierarchy.ruby_system.dma_controllers1 -->
<g id="node15" class="node">
<title>board.cache_hierarchy.ruby_system.dma_controllers1</title>
<path fill="#e5bcd0" stroke="#000000" d="M92.51,-238.79C92.51,-238.79 189.51,-238.79 189.51,-238.79 195.51,-238.79 201.51,-244.79 201.51,-250.79 201.51,-250.79 201.51,-262.79 201.51,-262.79 201.51,-268.79 195.51,-274.79 189.51,-274.79 189.51,-274.79 92.51,-274.79 92.51,-274.79 86.51,-274.79 80.51,-268.79 80.51,-262.79 80.51,-262.79 80.51,-250.79 80.51,-250.79 80.51,-244.79 86.51,-238.79 92.51,-238.79"/>
<text text-anchor="middle" x="141.01" y="-253.09" font-family="Arial" font-size="14.00" fill="#000000">dma_controllers1</text>
</g>
<!-- board.cache_hierarchy.ruby_system.dma_controllers1&#45;&#45;board.cache_hierarchy.ruby_system.network.routers6 -->
<g id="edge56" class="edge">
<title>board.cache_hierarchy.ruby_system.dma_controllers1&#45;&#45;board.cache_hierarchy.ruby_system.network.routers6</title>
<path fill="none" stroke="#381526" d="M153.19,-229.45C156.61,-221.77 160.33,-213.43 163.75,-205.75"/>
<polygon fill="#381526" stroke="#381526" points="149.98,-228.05 149.11,-238.6 156.38,-230.89 149.98,-228.05"/>
<polygon fill="#381526" stroke="#381526" points="167.01,-207.04 167.89,-196.48 160.62,-204.19 167.01,-207.04"/>
</g>
<!-- board.cache_hierarchy.ruby_system.dma_controllers2 -->
<g id="node16" class="node">
<title>board.cache_hierarchy.ruby_system.dma_controllers2</title>
<path fill="#e5bcd0" stroke="#000000" d="M199.12,-4.69C199.12,-4.69 296.12,-4.69 296.12,-4.69 302.12,-4.69 308.12,-10.69 308.12,-16.69 308.12,-16.69 308.12,-28.69 308.12,-28.69 308.12,-34.69 302.12,-40.69 296.12,-40.69 296.12,-40.69 199.12,-40.69 199.12,-40.69 193.12,-40.69 187.12,-34.69 187.12,-28.69 187.12,-28.69 187.12,-16.69 187.12,-16.69 187.12,-10.69 193.12,-4.69 199.12,-4.69"/>
<text text-anchor="middle" x="247.62" y="-18.99" font-family="Arial" font-size="14.00" fill="#000000">dma_controllers2</text>
</g>
<!-- board.cache_hierarchy.ruby_system.dma_controllers2&#45;&#45;board.cache_hierarchy.ruby_system.network.routers7 -->
<g id="edge57" class="edge">
<title>board.cache_hierarchy.ruby_system.dma_controllers2&#45;&#45;board.cache_hierarchy.ruby_system.network.routers7</title>
<path fill="none" stroke="#381526" d="M234.89,-50.14C231.55,-57.34 227.95,-65.1 224.61,-72.3"/>
<polygon fill="#381526" stroke="#381526" points="238.11,-51.51 239.14,-40.96 231.76,-48.56 238.11,-51.51"/>
<polygon fill="#381526" stroke="#381526" points="221.3,-71.12 220.27,-81.67 227.65,-74.07 221.3,-71.12"/>
</g>
</g>
</svg>
